<mxfile host="app.diagrams.net" modified="2023-10-31T16:58:01.466Z" agent="Mozilla/5.0 (Windows NT 10.0; Win64; x64) AppleWebKit/537.36 (KHTML, like Gecko) Chrome/117.0.0.0 Safari/537.36 OPR/103.0.0.0" etag="_5acIugovSwqbWRQR9Tf" version="22.0.8" type="google">
  <diagram name="Page-1" id="vqgPxwsnc0QIN0-4BXVN">
    <mxGraphModel grid="1" page="1" gridSize="10" guides="1" tooltips="1" connect="1" arrows="1" fold="1" pageScale="1" pageWidth="850" pageHeight="1100" math="0" shadow="0">
      <root>
        <mxCell id="0" />
        <mxCell id="1" parent="0" />
        <mxCell id="EiOGQCSZbxETFX581DzM-26" value="" style="shape=image;verticalLabelPosition=bottom;labelBackgroundColor=default;verticalAlign=top;aspect=fixed;imageAspect=0;image=data:image/png,iVBORw0KGgoAAAANSUhEUgAAArsAAAG4CAYAAABFHy+xAAAAAXNSR0IArs4c6QAAAARnQU1BAACxjwv8YQUAAAAJcEhZcwAADsMAAA7DAcdvqGQAANlkSURBVHhe7N0FfFTHFgfgExcIHiS4QwIEdyjuFCjWhwenwTW4FS1e3J1C8UJxCi1SPHjQIMElBAIhOm//w6SEsBvZLJHd870fr9zZzQLJ7r3nzpxzxkxoEGOMMcYYY0bIXP2XMcYYY4wxo8PBLmOMMcYYM1oc7DLGGGOMMaPFwS5jjDHGGDNaHOwyxhhjjDGjxcEuY4wxxhgzWhzsMsYYY4wxo8XBLmOMMcYYM1oc7DLGGGOMMaPFwS5jjDHGGDNaHOwyxhhjjDGjxcEuY4wxxhgzWhzsMsYYY4wxo8XBLmOMMcYYM1oc7DLGGGOMMaPFwS5jjDHGGDNaHOwyxhhjjDGjxcEuY4wxxhgzWhzsMsYYY4wxo8XBLmOMMcYYM1oc7DLGGGOMMaPFwS5jjDHGGDNaHOwyxhhjjDGjxcEuY4wxxhgzWhzsMsYYY4wxo8XBLmOMMcYYM1oc7DLGGGOMMaPFwS5jjDHGGDNaHOwyxhhjjDGjxcEuY4wxxhgzWhzsMsYYY4wxo8XBLmOMMcYYM1oc7DLGGGOMMaPFwS5jjDHGGDNaHOwyxhhjjDGjZSY01O8ZY/HkyZMn8ldoaCglS5aM8ubNS1ZWVupRxhhjjBmKiQa7YeS9sD5V29aADv7pTrkt1HCsGep1mLHDx2zPnj20fPlyOnnyJAUFBVHWrFnJwsKC3r17Rz4+PuTi4kINGjSgbt26Ufr06dVXMsYYYywuEiSNQfhfo99HtaJK+TOQg401JctUjJoMXU9nT66glceC1bMglHyv/kGzetalwo0XkE+YGv5CCJ0ekp+szMzIzNyOig49Qf7qEQjxHEWFrTSPycfTktvuQM2oOeXsvoe898U1QDXU6zBjtnfvXsqfPz+NGjWK6tWrR8ePH6cXL17Q+fPn6cyZM+Tl5UXPnz+nadOmyaC3QIEC9NNPP8kgmDHGGGNxE+/Brni+j/pXKkfd96akNgv+pru+78n35m4aU+ERTe0wkP58EiHYDblMi/oPphmr99PNt1ojXQ1LKj3lBgWLIDraOxNdn9mBBu17TeHT1ZZFx9GF5wepd9mWtObRU1pR30Y9wti3FRgYSF27dqUePXrQvHnz6OzZs9SxY0fKkSOHesZn9vb2VKlSJVq0aBHduXOHgoODydXVlU6cOKGewRhjjDF9xG+wG/aY1vVoS/Pet6GN++ZTt2r5ydHeiqwdnMi1wSBav3siFQ7wpf/CWsui5LHvMu0aUFgT0saAVSXq45GbtnVxp02PPwfHlilzU978OSlXOs6JZPEDgW7Tpk3p9evXdOnSJapZs6Z6JHqpU6emJUuW0Jw5c6hx48Z09OhR9QhjjDHGYiteg92Qy4vpl51+VNZ9EFVLbaZGP7PM041Gtssc6S9lRrZ2tpr/jwEzK8rbdSUtrX2O+nZeQrdD1HgkIS/P0dphjcm13iy6K2PiMHp2YCTVLZCGrM0tKVXumjTi0Mv/ZocpxIf2jmpIBVJbkJldFqrYazN5B3/9OiEvztKaoY3ItdGv9O+uYVQrdypKka0mTT4VMbGCmYJWrVrJwrPffvuNHBwc1GjsIH/3999/p+bNm5Onp6caZYwxwwnzXkh1c9ameXdC1YgBhXnTwro5qfa8O/QNXp2xGIvHYFfQi5PH6IZIT0VcIwe0BmSenhrMXk89fMeS2/RLhAzdL4XQ1YU9qef0neQVnhoR9oi2T1pCtsOvkP/7OzTb9RxNnrCNnspoN4BOeFQn99stafuDAHp7rCsFrhhKy64ERnqdELq8wJ16zfiDrl3ZS3vf/UCrzp2j6a7nafLMffQeL8VMAorQvL29ae3atWRpGaM1CZ2+++47mjlzJrVt21YWtTHGjIjwp2u/j6JWlfJTBgcbsk6WiYo1GUrrz56kFSuP0X9JfcKPzsxtTSUyJSNbh8xUqvVMOvH669rykNNDKL+sUTEnu6JD6cSXBSw0qrDVp/oVzeNp3XbL66N5zu60x3sfuX+LwhPznNR9jzftc89NXNbCElK8BruBgUEkRJDmov3lhzT4xADKY6mKyCJ8CPVmX5KGrZ9AaRd0oDFffNrBklxHHKN/x5T4nBphnpW6HX5K29o6kbVdNqrboARZvfenAPw13++nOUtSU++JraiAgzU5lBhFZ/xv0c/FbCK9jiUVG3WCjo8qRjbZ61HnliUpU6ocVLF8Lgp5/Yr8vz4vMSP06tUr8vDwoNWrVxuslVjr1q1la7KpU6eqEcZYkiee077+lahc972Uss0C+vuuL733vUm7x1SgR1M70MA/n/wX7L479AvNe92efr/+hO7sGURO/wyhJj/9Ti8iXVcsS0+hG8GCgo72pkzXZ1KHQfvov5jYsiiNu/CcDvYuSy3XPKKnK+qTwStYwnxo9dQ19OhzFiFjiUI8BrvmlKmQCznSazp+9PLnO1YNq/LT6MqdxdQghQVl6biTbi+L+4fQMmcHWraoPO3qMoj2voocaZqRrb1dpNSIEHp54Xea0q02Vep3kALVl4S9ekD3AtORY0pt36rIr2NGdnZfvi5aS5kJ8Tklghm1pUuXUv369alQoUJqxDAmTpwoi9x4dpcxYxBGj9f1oLbz3lObjftofrdqlN/RnqysHcjJtQENWr+bJhYOIF8ZNH6kc0+L0LgRtShXqhSUuWJvmju4Ar098Q9d1ZGqp7mqUqU+HpR7Wxdy3/Q4Qh1MSsqdNz/lzJVO8wxDC9Zcu3vQ8H1v+XrHEp14DHaJbCp3o27FrMhr0ShacSfip1QTNGbKTVmTW1DabNnIwSB/KzNKW/sXWtP2GvXvuSnqO03xjHZ1K0lVRl+lLK1m07aptWWwjQ+seepM5ERn6Z+LH+VTGYvKwoULqVevXupIh9BXdHb5QGpSKjultrMh+3T56LsOk+nPe7rfY2hHVrhwYdqyZYsaYYwlWSGXafEvO8mvrDsNqpb6iwkSyTIPdRvZjjLLa6EtVWnTgrL9d100p5SpUpJN7vyUS2dugBlZ5e1KK5fWpnN9O9MS3QUsdG7tMGrsWo9mfSpgwSD57B1FDQukJgszO8pSsRdtRpEKhD6jwxObUtH0dmRtn5nKdJhH5/xwpQyjhxs7UM2eu8nncE/KaulArba9p5fn1tKwxq5Ub9ZdzTNC6MXZNTS0kSs1+vVf2jWsFuXWBO/Zak6mz2UtH+ja2p5UNU8asrN3pMLNptEJXw6dWdzFa7BLVkVp8OqZ1MDuAPWu/j0NX3eC7vp+pOCPb8jnylXy0Za7EPaBnj3zo1DfZ/QsIIqINfgF3fX2otu330ZIhLejooPW0PCwhTT3TIS5ZPGBHj54ofmcPySfD4LE8500Y6U/1RjQl5qXTEbP772g0Hev6fY/x+hWsurUsXkILXEfQDvu+FNIkC/d3juXVpz68NXrkAggn4fPKfjlI3r8Eccf6MkTXwp54UM+MieCGTO0DAsLC6PixYurES2CbtPyZq5UY24ANVt8ih69e0+vvLbRgKz7qH2xqjT2pO7euujMcPjwYXXEGEuqxIuTdOyGoPRFXFVAGxvv6J8jPtS4z/8oa5Rfa07pG8ym9T18aazbdLqk5foacnUh9ew5nXZ6vf1v9jfghAdVd79NLbc/oIC3x6hr4AoauuyK5pEgujypLrX9twatuv6KXl2aT6XO9aPvmi2jB2HmlLXlato3vjQlqzqXHoa8o/UNb9PCnj1p+k4v+lTWcpkWuPeiGX9coyt799K7H1bRuXPTyfX8ZJq571NVy7uDw8njVFVacMaHnlxZSzXvjKRWI/+SjzEWJ9hBLb4FPzsplg5qLirmzygcrC2EhZW9SJO1sKjeZohYfua1CFPPE2HPxJLaNogSP/2ybSY2flCPRfRxh2iTwkw9z0qUmHBNhKiHIMz3kBjQcKg4HoSjUHF7WjlhrV7TqswUcSPogfitnYtIae8oSrZfLE7tHSLyp3UVPXc/0zxb4/1VsbxLWZHF3lokz/Wd6LHsonj31etMEnsnlRFW6tjSZbCY0yun0Nx4y2PrSrOEt3wxZqw2bNggmjZtqo60CRZXJxYT1slqiiUPI78ZfMWu9hmFeZbu4uBbNRTJ6dOnhaurqzpijCVVod6zRCVrc5G+yz4RqMakoOOif24Lec3AL7M0HcSuj+oxJejKNNGy6xbxOIrrSdDRQaLT4iefrqXBd8XyRtlFMY/j8rrl/Wt74fHpYiiFXJ8oStpXENPv4AX9xfaWKUSZWd6frn0RffhTtEuVTvx09PPXBhz5SWQwcxZjr+DZIeLGlDJCE+yK/05vIdfFxJL2osL0O59eL+SK+Ll4MlF17kN1fE3zeDJRc9FTzd/1vdjWOrUwU//28F+WzsPwTMbiJEGC3YQQ/O6dCFC/Z+xbGDdunBgxYoQ60iL4uOib2UzYNd0k/NRQREFHe4qMZC+abPRVI1/y9/cX9vb26ogxlmR9PCi6ZzaXgdzZz7GjFBZwTyxukEJYZOko/ngdKeR8e0rM6D9bnHmnjnX4ItjVCHu5V7gXchbd9zwXdyMFuzLwTqaC3dD7Yk4ZG1F/3Wv16Gehd2aKUuaZxYBTEaaSXq8RdSxSiC6HgjUHWoLdUG8xq1Kyz8Fu6B0xvULyCMHuDTGlTHJRY6Hm7xrqI+ZVSy/a7uQrdVIUFvbfNGWiFL9pDAnIMnlyslW/Z+xb+PjxI9na6n6XiZfX6NJzokz5clMyNRaRRa6ClMcigC5fuqdGvoTiR2xWwRhL4mwqU7duxcjKaxGNWnGHvqhgsc1EubMmJ4u02ShbxAKWoFu0ef55KjuyF5VMrsZiyCxtbfplTVu61r8nbYqqgMU8NWVyIjr7z0WKXEFg7piVslo9or9P3P8v5UEEfqRASxcqkscAoYR5CnJMF0z//nWWAtQQit48t+1Uv2eJxcuXL2nGjBly46Ts2bPLFpv4hetfsWLF5M6h27Zto9DQxNNd2WSCXca+NRsbmxgFo8jr1cbMXHPC0HwizS20fyzx2tbW1uqIMZZ0WVHRwatpZgM7OtC7On0/fB2duOtLH4M/0hufK3Q1cgFL4G3a8PNmSuHWjcqlwkJ/MPle2Ujr/vJVT4gomF7c9Sav27fpbYRYw67oIFozPIwWzj0ToRuSoA8PH9CLkJf00OeD5siBqndsTiFL3GnAjjvkHxJEvrf30twVp4gc6lCfbjnpzNhuNOvMSwoMeEx/z15Mt34YRD/K5GEzsrKypLBnD8j7zm76/cgbEh8e0oMXIfTyoQ99KmvxoYfPg+nlo8f0qazlCT3xDaEXPj4UIJJTjTaNKGCRG3WY+w89ePOWHhyaSVveuXz6q7IE9/TpU7nlfb58+ejq1atywyPUkaBLEAJbX19fueU9trpHMJwrVy65E6iua168UjO8jLE4WrFihShSpIjQnBDUSCTBx0QfJxI29deIV2ooouAzg0U2s+Tix63ak3YvXLggnJ2d1RFjLMkLfiZOLh0kmlfMLzI6WAsLCythnyarKFy9jRiy/Ix4jZXhkJtiWeOswsrsy1xWM4f6YvmTyEvHH8WONin+y3u1KjFBXPuygEUcGtBQDFVpDKG3p4ly1uo1rcqIKTfw5Pfi6vIuomwWe2GdPJf4rscycTE8bSLwjtjcr7rIldxCWKXILaq6rxSX/dVjGkEXp4uaWdKIXI0XiKsBt8W0ctbq72slykzaK6aUsVLHlsJl8BzRK2d4frK1qIQ84TA/cXZeO1HKKZmwdsghqg7cKR5E/PuzBLNx40aRIUMGMXz4cPHqlbYr2NdwzapataooX768uH37thpNGGb4P82bjTEWB9euXaMWLVrQ3bt35a+MGTOqRyIKoUvjilHxiSlo+pWj1CdPxN3V3tHhnwpRrb2N6fCV2VTZXg1HsGTJEjp+/DitXLlSjTDGWCyF+JN/SHJKznl9LIamT59OCxYsIE3ASyVKlFCjMYMQE7O7U6ZMof379xu8B31McRoDY3GA5ZlffvmFqlSpQr1796ZUqVLRmzdv1KORWVKRwRtoZqWbNLRhV1px+jF9CAmlgOeXadvwhvTjphz08+aJWgNd2L17t9w+mDHG9GbJgS6Lublz58r+8UePHo11oAvYGbdPnz40a9YsqlWrFt26dUs9Er94ZpcxPaGvbvv27eW2wCtWrKAcOXLQ6NGj5ZbBOEHoFPyYji74mSYs3kYnbr6isFS5qVzjLjR0VE+qkUV7Tu69e/eoVKlSdP/+fbK31xENM8YYYwZy8eJFGaCeOXOGsmXLpkb1h11A16xZI1cosbtsfOJgl7FYwkdm/vz5NGbMGBoxYoSc0cXdKzx58kTudIaTQ86cOeWYIaAoIH369DR58mQ1whhjjH0bWLXETG6/fv2oXbt2ajTuateuTTVq1KBBgwapkfjBwS5jsfDgwQMZeL5//55WrVolq1IjQxXqjh076MiRI/8FwXGB9AUE1LjLTp48lj2HGGOMsVjCdQcTOpi4MSQvLy+qWrWqXKWMz+5CnLPLWAwtX76cSpYsKe9Kjx07pjXQhb59+8olmp49e6oR/Xl6elLnzp1lURoHuowxxuLDr7/+Sr169VJHuoTR22tbaIJbNXLJnIrsU2alUj+Op5037tLvi3eQtsZ4BQoUkKufv//+uxqJHxzsMhYNpCY0aNBA5uEeOnSIPDw8osw3Mjc3p+3bt9OFCxeoR48eFBz8uatlbJw6dYrq1q0r85wqVaqkRhljjLFvBxsk/fPPP7KPrm6h9GhrRypewp0OZ3Gn9Wce0ptXt2j/5Jrkv7IT9V15j/x0tNdt3bq1nDmOTxzsMhaFDRs2yB1hkLuE4BN3pDGRIkUK2rt3Lz1+/JhKly4tUxBiCg26kQvcqFEj2W7shx9+UI8wxhhj3xauV5iBxa6duoT5rCK39mvJtv8u2jW+Kbk6OZC1pS2lzlGWWk3aTdvapaK3OpJkcU00dHpEdDhnlzEtsB3iTz/9JHeJWb16tV4tV8Iht3fw4MGymwJeE+3DkiX7esNgtGRZu3atDHDLlSsni+AyZMigHmWMMca+vWXLlsmOCUjd0y6Mro4vQkXGp6eF9w9Rl0yxq01B8Ru6CqFNZ1Rb7BsSz+wyFgmKy4oUKSL3/D5//nycAl1AezIk42Mf8UmTJskAFjPESFFo2LCh7NGbJk0aqlmzpmxbhu0Xt2zZwoEuY4yxeIcCbAcHB3WkjR95nr5FYY5FycUx9kXYSPVDsBsQEKBGvj2e2TUg5GYiUMFyN4Kk169fyzZV2GigaNGicuq+evXq3Cc1kfLz85NdD06cOCELwipUqKAeMSy8T65cuSL3Gcd+4pjlxa4yjo6O6hmMMcZYwsCqIlY1US+ilXhOK2pnoU63B9CZW5OohB4tc5Hq9+jRo2iCasPhYNcAfH19afbs2bR48WLKkycPVaxYUc4Goi8qIOhF8IsgCtX1HTp0oP79+1OmTJnk4yzhYRtDdD34/vvvaerUqXxDwlgSgHSjv/76i86ePUvXr1+XM0WWlpayAT46p+BcXLBgQfVsxlhUEA4iRsFuZ5iM2bdvn3okshA63jc7VVxUmjY82UY/plLDMYT0BXxG8V/M8sYHDnbjCBWF3bp1k0vSCGCjO7FiJyy09EBuJvqxoiqRJRx/f38aOHCgLCZDnhJm3hljiRsKaLBf/65du2SnEqyaYXUEqyRYOfH29qbTp0/L7inY2RDblTZr1kx9NWMsHGpF8DnBL/SGxwojPk9//vknPX/+XD3ra8EXR1PRElMo5ZSLdHRAfrJS4598pFuHTpHNd99RNks1FMHBgwfp559/ln9evEGwy/QzYcIEoTmRCs0PTI3E3Pnz54Xm5Cx69uypRlh8O3r0qMiVK5dwc3MTfn5+apQxllgFBgaKoUOHiowZM4pffvlFvH79Wj2iXUhIiNiyZYsoUaKEqFWrlnj48KF6hDHT9PjxY7FmzRrRoUMHkTVrVvkLv8fYo0eP1LOEyJw5s7h69ao60uaD8JxcUaS0cBK1Rm4Up+77io/BwcL/yUWxdcpIseLSB/W8r+Ez7OHhoY7iB8/s6gmFRtjjGTm6mhOvGo2dt2/fUp06dWTKA2Z7WcwhvxbVomhfcuPGDdkX0MrKSi6NoOsB8m01H1b17C/hucOGDaNNmzbRokWLqH79+uoRxlhiFX6+RHoYUsbC08RiArnxSE9Cutkff/whzxGMmQKkCmAGNXz2FrO12MEMq5j4lTdvXvXML40aNUqmYKK/vG4f6d6fs2jctFX055m79DIkJRWo1oaGTB1HbV20b4KkuWGVxd9///23zo2ZvgUOdvVw4MABmd+JQjR9A91wOIEjrwz7RLdt21aNMl2Qlzdz5kzavHmzvEnARcvFxUXm2GL58s6dO3L5EjuclS1bVu5mFjE1AY+hOwIKBpF8jy4IjLHEDefJWrVqyeXVOXPmqNHYQ9oZtvtG+gMHvMwYIW8d1z9MxCG4xWRQ+fLl/wtuce2LyTb22EwJqUGXL18mJycnNRp3CxYsoJ07d9KePXvUSDxBsMtiDsvd2bJlEwcPHlQjcefp6SnSp08vfHx81AiLTBPIitGjR8vv0/jx48WzZ8/UI9p9+PBBLF26VGjuHMWPP/4oXr16JbZv3y6XPzdt2qSexRhLClq3bi06deqkjuIG5wGcw9+8eaNGGEu6cG08ceKEvC5WqVJFODg4iEqVKokxY8aIf/75RwQFBalnxh5eo169euoo7ry9vYWjo2M06RHfBs/sxhKWwnCngxQGQ8KmA5iZxKwl+9K7d+9I84GTrUqw4UJs7jKRsjB8+HC5D/e2bdsoS5Ys3L+WsSQEn1ts0Y0q8ah2dIoNbO6CGbAVK1aoEcaSBoRsaF0ZnpaAbX1z5cr138wtCja1bVqkj5CQELlCil08kfoXF7iOo5c8CkVRFB7fONiNBeR95c6dm7Zu3UrFixdXo1qEvaVr236lX+atp/3nvcnfwYXqdh1JY1sH0tHLNahro9TqiZ89fPhQbkuLbg3Jk2vPdTFF+IDUrl1bfm909vyLAdycDB06VFaBYhtExljS4OzsLGsaIqYjxRWa5uNcfvToUcqfP78aZSxxQneR8OAW6QkpU6b8L7hF/m3atGnVMw0P6QzY+AgtU3EN1QdqbNCxKq7X8bjgYDcW0Ce3Z8+esmeuTqGPaGun76j13uw0cN4M6lGrIKW3ek8+nnto0dBBdLTxcTrWJ4fWretQKOXm5sYtciJo06aN3E5w6dKlakR/2Prwl19+oQsXLsTbFoWMMf3h5hSzQJjVNbSRI0fK4h0uDmaxhfcNanbQ3/nBgwdyVRbXFEykIBcc9STW1tbq2bGHIrLwnFv8wgpleHCLX1mzZlXPjB8IeBGs5syZUxZ1x6Y4FP8O5MljB1G0C0wovF1wLODNjURv3cLIZ5UbtV9rS/137aLxTV3JycGaLG1TU46yrWjS7m3ULtVb0nV3gddGdwH2CZYvcTIx1MUIHzhXV1eZ1sAYS/zWr18vi4GjE/b2Gm2Z4EbVXDJTKvuUlLXUjzR+5w26+/ti2uGrnhRJ165dacOGDeqIsejh+owJGAR9U6ZMkYWTCGyROoBCaRRQ9+rVSwajmAX18fFRXxk1vA66hKCgGlvJI2hGtyBcr1BU+fjxY7k6idnV+A50ARtgobgb/0b8QtolVqGjghvVRo0ayYJwBMgJGehKmNllMdOuXTuxfPlydaRF6BUxzsVcWFVdLB6HqbFY2LNnj6hZs6Y6Mm1hYWEib968evUwjsrLly9F2rRpuRiQsSRAc2GVPcmjEuKzRbTPbSsyVBshNns+Em8Dg0XAa29xcp2HqOJUTszyDlXP/FqWLFnEnTt31BFj2mmCUaG56ZI9aTVBm/D19VWPaHf79m3Rr18/kS5dOjFnzhx5PYvo48eP4vDhw2L48OGibNmysqgM1/7JkycLTUAtQkN1v2cT2t27d8XAgQPldRQF4Cgexb8DxWyDBg0SderUkY9pAnWxZMkSWSyeGHAaQyzgLqVTp05yS1mtfNdRw4xt6Lz7cbo/ozxp2TgkSrhrROEEz+6SbEuCZUbM7Bpa7969ZbEbdnBhjCVOWLpFa0Dk+6GHtlZhPrS8TkHq+rg3/XtmApWMVL/24fRC+t22C7Uvon3zfhTetGrVilPHmE7Il0VhFXJjseupJjBVj0QPu5NhZhM5tWiXiW3p0ToPq8Ro6xWellCuXDmysbFRX5U0aAJ4OZONeAUz2EjlQAtQ5NgjlSOubVkNjdMYDEgEB1GgMJNv2ui72LGorFu3Ti4zRkef5Uts74ztmhljiReWdnFTqjPQ1Qi7voJmHAqkyn16UgktjRrsS3fXGehCunTpyNdXx4mCmTwEughykTeOTkCxCXQBGzagWwK+rnHjxrKwDFtXIzhEDdD48eNl8VdSC3TB3NxcpjQgtWLEiBE0duxYGjJkCDVs2DDRBbrAwW4spE6dml6+fKmOvmaWJh85Owp64nWL3qmx2MBr8yYHn+DOF5ttRCX00VbqWLwEuR/OQu7rz9DDN6/o1v7JVNN/JXXqu5Lu+YWpZ34JH1BcSKPa95sxlrBisujo53maboU5UlEXR70mGNBcnxc3mTZBQUFyNReBbvfu3dVo7FlYWMh8W7QD27hxIzVo0EDexLH4xcFuLKBtxrlz59SRFpalya2zMwXvmUPLbgSrwQg+3qJDRx9QiDqMDK+NP8PUIRB9+vRp1C3CwnxolVt7Wmvbn3btGk9NXZ3IwdqSbFPnoLKtJtHube0o1VvdFzEUFUT5s2SMJSgEBGg9iJaP2gkKDgokYWZDNjb6raVhgiFVqlTqiLHPxowZQ3ny5JEdmOIKAe+yZcvkzn0o3GLxj4PdWMBWlcePH6e7d++qkcisyNVjPU0odY2GVGtAozadpgdvAikk5D09vbSNpk48TulLZ9OZy4vXxqyjqcN+3FhexDKJLnFdvsTGEvhzGGOJEzaQyJYtG129elWNRGZGafI5k6N4Ql639FlL4wkGph1abaGDwMKFC9VI3CGFYe7cuQmyoQLjYDfGsNT14sUL8vLykjk8WOLQys6VhhzwpJ29MtOx0d+TS4Zk5OBUhjqt9Kf6gztQYR0bAN2/f18WY+HDhZ1KTHlpDf/26Pbu5uVLxowfJhiQ84hzrzaWpd2os3Mw7ZmzjLQvph2iow+0r6WhnRNWkdBWibGIcB3+3//+F6t+sjGBFIbAwED5nmbxi4PdaKDCcOXKlbL3HRKwUbWL7fOibBhtm4PqeSynw9ef0rvAEAp4foV2z2hLLlFsjIYKTVRt7tixQ87wogEzdvkxRbgDjrpoJO7Ll5jV5bwpxhIvf39/eZ7t378/zZ8/X41GYuVKHusnUKlrQ6hag1G06fQDeqM554a8f0qXtk2licfTU+ls2tfSsKxco0YNuZqGjWYYC7d69eo45enqgkkWFEivWrVKjbD4wsGuDsgVQxNk7DmNzgCzZs2SS16440Nz5b1796pnxh1eF90BsLyB5Xvk9KAYDgVa2EbY1KBID1sm604XifvyJXbBK1q0qDpijCUWKBzFxi9o3I+ZV8yuoT2TLnauQ+iA507qlfkYjf7ehTIkcyCnMp1opX99GtyhMGlbTENbM5zLR40aRTNnzpRbkm/ZskU9ykzZs2fP5PsOrcG+FEKnh+QnK03AamZuR0WHniB/9QiEeI6iwlaax+Tjacltd6B65EuVK1eWBdgsngn2hadPn4qhQ4fKZtA//vij1obmaAaNZuSPHj1SI/pDc2pnZ2exfv16NfIZmlc7OTmJkydPqhHT8cMPPwjNDYA60iLIU4xythA25aYJryA1FkHAzYPiyP1gdfQlb29vobmAqiPGWGJw69Yt0a1bN6G52RU//fTTf5s9bNiwQWgCD9mI31D69+8vz+/hcJ7Pli2bGDdunBphpmr37t3RbO4UJI72ySmsbfKK7ntfiYjbRQS/Pih6l20p1jzWclFSgoKChL29faLZbMFU8MyugubP6OtasGBBeVeH2VtsJamteAE5u+iVh/54yPvSF/bXRrPqOnXqyPygyLB8t3jxYrmJBWaXTQn+zfi36xSH5cvly5dT8+bN1RFjLCGhVgGfR2yXjllc1EXMmzdPrqqBJiil/Pnz06BBg+RxXB04cIB+++03+WeEw3kes23YmhWbTGDml5km5Ic7OTmpIx2sKlEfj9y0rYs7bXr8ucWlZcrclDd/TsqVTndvaPSNxsot93eOZyroNVmaE5ycRXR0dBSjR48Wmje6eiR6v/zyi9w+cP/+/Wok5vDnak7gYsCAAWpEtytXrgjNiV/OOEfedtDYYLZ82LBh8ueRMmVKcenSJfWIdgHeu8Ukt6qiQIbkwtrCVji61BP9Vl8R79TjkeFuOmPGjOL69etqhDGWELA9epUqVUT27NnF7Nmzhb+/v3rka69evZLbj+LcEBeHDh2Sqzr//POPGvlSQECA0AS7onTp0uLx48dqlJmSFStWCDc3N3WkTZA4OqiTWPzoqfijc16Rse5CcSt8ETHUW/za3kMc1z2xK2EV4cGDB+qIxQeTDXaxVFG5cmWRI0cOuXf1+/fv1SOxg0AXb9y2bduKCxcuqFHdbty4IZfoEHD9/vvvajR6CMIrVaokmjRpEuVFIanCfuC4yGAJs1evXnJJc968eaJ8+fIG3Scc+5Xjz2GMxb/g4GCxZs0aUaRIERm8IlUJYzHx8uVLUbRoUbkXP9K/YgOTBAiocRP9999/q1Hdfv75ZzmRoS2NjRk3XJdxndVNBbtPwoR4f0aMLZtJVJx8UcgkmxgGuylSpIj1e5jFjUkFu8iVWbVqlShcuLA8aSJPNiQkRD2qPz8/PzFx4kR5csSMAAKqdevWiQMHDoiDBw+KTZs2icGDB8tgNUOGDGL48OHi+fPn6qtjLjAwUHTs2FH+3Y3hrhDfe3xvENDipgM5ym/evFGPfrpAVa9e3WB5dPh5ZM6cWc4SMcbiD27QZ82aJWdxq1atKvbu3aseiR2szPTu3VvWTCxYsCDaG3+cQ/BnYWKjYsWK4vbt2+qR6G3ZskUGx5s3b1YjzBRgQgrXI90iBLsawXeXi0bZiwmP4+9iFOziPYhYgcUvkwh23717J2bMmCFnYBE87du3Tz1iWAjeULw2efJk0aJFC1GjRg355yFNYvz48fKka4gii6ReuIY72qlTp8qfB24AcFHRddOBtIbcuXOLmTNnqhH9HDlyRF64jh49qkYYY98abupHjBghP3vNmzeXKziGcOLECXleTZs2rZzpRSCNiQWcEzFzu3LlSuHu7i7y5csnJwewNK3PClF44RrO38w04AYpVapUslhduy+DXc1XiJd73UUh5+5iz/O70Qa7mAiLeuaYfQtGHew+e/ZM5nihs0LLli3FuXPn1CNJ365du2TuGT44SYWXl5dM4UCqQrt27WL888AsNgJezOjoU8GKGSBcbP/66y81whj7ltBJoUePHvKzjv/GZkY1NnBuWL58uTyvYMa4bNmy8gb6f//7n5zgOH36tHqm/p48eSLKlCkjXxM5vcz4dejQQUyZMkUdRRY52IUP4sKkyqJgi8nCo23UwS46PdStW1fmBWMijsWPJBHsIqcL+bB//PGH2LZtm5whvX//vnr0a7pa2Bib8MI1BPSJuXANM+n4cCOFY9SoUfLiEVuvX7+WubaYqdm4cWOM8vwwi4vZ9VKlSolr166pUcbYt3L27Fm5qoWbS8zoYsLBGCDIRbDLhWumARMxmNHXep0JeiRWNKsgBv/zRnyxHhlyX6xtlkMkLzBAZ7CL6xDqdXA969y5s5zEMcXWogkh0Qa7yE9FIQNyrZIlSyZcXFxEgwYN5PQ/7ozwhsHMJmYIw5fGEBA3a9ZMnmhHjhypV15sUhNeuIYlvcRUuIYZ2EWLFsmfG4pRli1bZpAUDhQWooIbube4kcHyJGZvEPhjyRHFBciPxp9ZoEABMX/+fFkEgxkfT09P9SqMsaigYPfff/+VN6oowsXFH+dkXTABUa1aNRkgIOXIGItogQvXTAMm09ANqHv37mpE+bhDtElhhn3mNb+sRIkJ174IeMN8D4kBDYdqDXYxIfXdd999kZKHyTtMAo0ZM8Yg9UNMt0QZ7CJgQU4qgtrt27frnOp/+PChbP+VM2dOeaJFtW10LWyMUXjhWrFixeT3JCEhxxYt0nDD8f3338sc5m8BwS3y9JCvV7JkSRlU49+PPxMXJOTohs92479Lly6VJxUUD/LSEWNfQ44iikFRwIsJBnyuatWqJc/DuHnEGGY20b3m7du38nOFNCrkxOJrMDkR084KSRkXrhk3rAhmypRJrkJiQg1tQmMjWHN90ZbsglgFRZKRc8exUoDPWbly5Yx2FToxSFTBbniPQ8zIYVYhpvDmwd0ScnPRbcFUTZs2Tc54xuZ7ZyiYXcUyH1JHkFv7rXL04gKz4MjFwswMX6gY+wSrMLgJTJ06tUz/wsUdnWsiw/PQpxb1D/icI6cRS7F//vmneobp4MI144R2l5gUQeceQG0MjuNa77N48WL5frl3754a+RJuHDF5g5soFFcyw0s0wS4CXdzdxKUIAPkwaG2zcOFCNWJ68OHEByby9sP4nmIZ//jx4zIYjirnOaaw7IL8WdyRYnYdBSFow5bY4c4dWzTXr19fbh2cEJC3jBsE/Dxw4eTZZpYQLl68KDe3wQoJ+tjGFD43WE3DZ9/Hx0eNmhYuXDMeWB3FjRu2pY48u4rVZczwxqYvfjjcNCJ3HYFuTCaALl++LFdJ0LkEeb3McBJNsNu0aVM5qxvXvBW8URHwYqnJVOEDg7tEpBRgKQbL+9iLGx9kXJywFIllGnyAGzVqJHbs2BGrtjz4EGJWBx9g5FRv3brVoBs/xAechCZNmiRXA9AjWdtMlqEhpQP78aNHKFomoXAOPYaxDByel449+1Fgydi3hhoH1D7o29EFs1H47OTJkyfB06cSCoJcXYVr6BmOdCt8n7FjY1Q5zyzh4KYF52HUveiadMBqB1acUXyJ62t08NnAigfO7Q0bNoxVUTZqW/r27StXIL9VGqApShTBLlIPsJuOoU4GeGPiJG4slcCxhZMs7lKx1NizZ09Z7amtOAwzMqtXr5bFW5iZ3blzp3pEO7QOC28nhMJAYyjSwAwVZngx0xuTnZX0gdlb5DwimEUbtLt376pHPkOuI76fyHfGTQhu/rjqm30rWNnBORI3qnGFvt/okmLKqxO4cUZQi2tPp06d5PfDwcFBfuYR8OAYEw7Ig0b3HN4qNnHAzwtBJXLVEaBGBTc2qAdBqiAKzfAzR29nXEMwsXTz5k35ecI5PG/evKJEiRJiw4YN6qtjD4Wh+LMGDhzIN0oGkODBLgodsOxu6Ep5vOHat2+vjkwHAjbMuCIojU1KAXrQog0Kev9FXpJDpXWdOnX+ax2mu9l20oWVAJz0kNOL3F5DwGz3kCFD5Cx6bFYa8P3H9xnfb0MEI4xFhIs6NrvBxdpQcN74qnLdhOBGFZMGaAWJ2gnM6EZe7ULOMzbDwKxd+GYYhjrXsNhDbixiD6xsxgZWAXFexiocOiFhoghBKVY4MHGCzgqGaieG1CJ0oMIN09WrV9Uo00eCB7u//vqrXBowNOzShYILYwzMdMFdJmYFEZzqA10sUHxSu3Zt+f1D6zDMeGLWHS2+DNE6LDHDzBQKdRBkontDdHf6UcGFDoEzGt3re0FDSz2cRNE6jTFDQdcE5JoastURbqxxk50QxbEJDUVqOO9ilSym6Vw416JFIm6EUWfB4g9W0fr06SNnX5NK/3VcjxCYz507V42w2ErwYBfLPNEvH4cKv6ubxc8dqgpnp5TCLkUWUbLlOLHD647YtGi70JXGjcpiQ85eJGZo5o4T7j///KNG9IMLIHKnEfAih8kUdx3DciSCAbSJiUl+lja9evWSBTzoVxoXOBkj4MWGKowZQvHixcWePXvUkeGg7SNy0k0Jen1jRhfL2PpAihMCXhT6sm8PM6U4L2OlEhM6SQlqOZAbXq9ePZOaxDOUBA12MeOFxs1Rz6CFCJ8t7UVu2wyi2ojNwvPRWxEYHCBee58U6zyqCKdys4S3jptpLE/gTW3sMOOKGdi45AdFhDtf5BstWbJEjZgezNCEbzOMGZjYBK2YWUeRpKE6Uxw7dkxeEGNTLc+YNshRxIxWtKsWoX7i6uafRYeqzsIppZ1IkaWkaDluh/C6s0ks2q59egHvd+Tzm0qthIeHhyz4RSpeXFy6dEl+vr/FDQj7DJ1HkHKA1LKYzsAnNrg2o7sD3i88ARI7CRrs4sONu6yohD5cJmomtxAuw86ID2rss/fi1IKV4qKO1TgU+CA3ytiNHTtWtioxJOScoVOBqeeU4cKN3DoEr9EV8AHyubCci5QSQxowYIDMi2QsLtBFBTmjUQrxEVva5xa2GaqJEZs9xaO3gSI44LXwPrlOeFRxEuVmeQtdoQJmnbArlLFD+0KsuLx69UqNxI2hX499CW3DMHFhqAmhhIYVXATuyJNHLjiLXoIGu9jKFakGuoWKK+NchLlVVbH4sX75k8mTJ4/znXdihlld5JiiEtTQEFyZShpIdNBMH/1I0aotqkpqtHFC8Y+hmWIOOjM8bKceuQf3l0LFw2U1RXILFzHsjJaL6PtTYsHKi19skRrR6NGjZbcBY4ZULxQjGXpmDTch6OTADAczuHg/5siRQ6anGROspLRt21a2RIvtphcIkNGNCS0DDbUCmdiZUwIKCgoiGxsbdaSNH3mevkVhjkXJxdFMjcUOXh9/jrHavHkzFStWjPLmzatGtAt7e422THCjai6ZKZV9Sspa6kcav/MG3f19Me3wVU+KpHfv3rRgwQJ1ZNqqVatGly5dohIlSlDx4sVp2rRppLnoqUc/w/cL37eohdKrs8tpYJNSlD21HdnYp6N833WgyX/eo4/qGZGlSpWKWrRoQcuWLVMjjMXe3bt3KV++fOpIi7DrtGLGIQqs3Id6lrBTgxHYl6bu7YuQhTqMTHNDKP8MY7Zjxw7KmDEjNWjQQI0YxqhRo2jr1q30/PlzNcLi4u3bt9SoUSM6fvw4nT59mooWLaoeMQ4pUqSg1atX05gxY6hu3bo0ZcoUCgsLU49+7ejRo9S5c2cqXLgwpUuXjkqXLk3lypWjLFmyUM6cOeX1ZePGjVqva8YgQYNdW1tbCggIUEdaiGAKChRkpglYbfSLdeXr488xVocPH5Yf6KiEPtpKHYuXIPfDWch9/Rl6+OYV3do/mWr6r6ROfVfSPT/tH5Dwk8OdO3fkf02dtbU1jRw5kv799186cOCADHxPnjypHv30Xjt//jzVqVNHjWgTRLeXNyPXGnMpoNliOvXoHb1/5UXbBmSlfe2LUdWxJ+mdemZk33//Pf3111/qiLHYi3aCwc+TTt8KI8eiLqTP/ALOtYGBgerIOM2bN4969eqljnQJo7fXttAEt2rkkjkV2afMSqV+HE87b9yl3xfvIG3zC6lTp6ZmzZrR0qVL1QjT182bN6lMmTKUI0cOOnjwIDk6OqpHjE/Lli3p7NmztGfPHqpevTo9fPhQPfLJ/v37qUiRItSjRw8Z6CJAfvPmDT169Eg+18/PTz4HN2+LFi2S37P58+dj1V+9gpH4NMGbMLA0jIp33YLFsT5Ogmwbiw16FE5iH2okchszbC2ITgw6hT4Uy2omFxYuw4T2VckFYqWupGcNbG5gLHlOhvbbb7/JPLsuXbrIXeVQWY2m8VEJvjpRFLNOJmouefhV3qPvrvYio3kW0f2g9rSb58+fi1SpUsWpJRozbSg8RUs7XcKeLRc1rcxETo+zOlMVooIUCWPuyIDm/tgcIuo8Sf2LqrHr1rdIgzIlu3fvlp2J0K7LlCBlY/LkyfLfjmsT3qNIE0W9Cb4nMYVCPhReop7KmLYCT9CZXcyMeXp6kuaHpEYis6TSbp3JOXgPzVl2g4LV6Gcf6daho/RAx6y75qROpUqVUkfGCbOuBQoUUEdfC7u+gmYcCqTKfXqS9lXJ7tS+iK5FSaKCBQvSrVu31BGLCHfU165dkzNlzs7OtHLlSvn90i2ETi+ZR54WdahLiyxfLaukqtWRmqX3odXz9qiRL2F2wsLCgl6+fKlGGIudPHnykJeXlzr6mlmafOTsKOiJ1y2dKwxRuX79erQpVUmZJhCQ/z47Oy0nUyXMZxW5tV9Ltv130a7xTcnVyYGsLW0pdY6y1GrSbtrWLhW91TFphuvVuXPnjG9WLZ5MmjSJunbtKlNNOnXqpEZNg7m5OQ0ZMkTO8GJ1oH79+nIG9/Lly1SvXj31rOhhFviff/6hKlWqUOXKlenBgwfqkaQtQYPdlClTyiABU+i6WLl60PoJpejakGrUYNQmOv3gDQWGhND7p5do29SJdDx9acpmqZ4cybZt2+S0vjHDkmFUaRp+nqfpVpgjFXVxJH0yQUxhWTIukDf166+/0h9//CGXy6L8XomXdO3Sc6JM+Sh3MjUWkUUuKpjHggIuX1IDX8NFln8eTF8lS5aUkwA6WZYmt87OFLxnDi278fX0An28RYeOPtDctmmH18afYaywPI5rlm5hdH3FDDoUWJn69CxBX4fE9lS6e3vSNb+AXEpM/mAJHkHbrFmz5PXRx8dHPYMB8kr9/f3p48dPVQ4fPnyQkw8IcpGfW7ZsWTluipB+iEkR5OKuX7+eHBwc1CMxh69Hyl6fPn2oatWq9OrVK/VI0pWgwS789NNPMljQzY5chxwgz529KPOx0fS9SwZK5uBEZTqtJP/6g6lDYe132E+fPpV3OO3bt1cjxgl5pLqDH0HBQYEkzGzIRs+kZ7x21EWEDHCBHz16dMzyw8PCNJdELczMydJS85E01z3TjpM7/zyYvlBoiRsz3YUsVuTqsZ4mlLpGQ6o1oFGbTtODN4Ga4OI9Pb20jaZOPE7pS2cjbfMLvr6+dOrUKapQoYIaMT74/EU1q2uIomoUow4YMEAWHmPlburUqbKYCJNDCILd3Nzol19+od27d5O3t7dJzALjOoRc01atWsmZdXt7e3JycpJ5zljxwizk7du3ZXCHcVM2e/ZsWT+ClUbM9sYFiq0bN25M7u7uaiTpSvBg98cff5TT7EeOHFEj2thSjnoetPzwdXr6TnPiDXhOV3bPoLYuydXjX0Nla9u2beUJwpihihKzDdqZUZp8zuQonpDXLX0WJYlu3LhBuXLlUkcsKvg+4fulk1k6KljYkcSTK+Tlp8YiCn1Md+6GULLi2quGcXeNAiPM/jCmD3QSQXCAQEknO1cacsCTdvbKTMdGf08uGZKRg1MZ6rTSn+oP7kA65hdo+fLlssglbdq0asT4RD25oGGAourg4GC5fIyCIkwEYcXo8ePHdP/+fZo5c6a8mXjy5AnNnTtXBnmYucPPtU2bNjRx4kTavn27vCboTg9MOvC9mDBhAmXPnp1+++03qlWrlpy9xU0Hui0gqEOXHMxCorMA0kD+97//fVWkZSru3bsn3wMrVqyIc6AbDt9/fI937typRpIombmbwJA8jQbJhuqHi80q0FfPmPvrhmvfvr1YvHixOtIiyFOMcrYQNuWmCa8gNRZBwM2D4sj9YHX0NfxcNAGcOmJRwX73yZIlkxtL6BJ8cawoZGEjys+6JSJ/198e6iGyWeQUvY9q360NO7NVrVpVHTGmH2xNW6xYMbkbk6FgMwQUa8a232dSg2b+2LJVt7gVVb9580b2hkcv35h69+6dOH36tFi5cqXc7VFzwyFy584t7OzsRKFChUSLFi3EmDFjxKZNm+RmQZpgXX1l4oa/a9GiRUXDhg1j3Ece1/yff/5ZFmnh+2Fq+vfvL3eIM7StW7cKzU2WOkqaEkWwC9hjHNV/cd0NBJ0JsMnCkSNH1Ihx09zByZNBVD54ThYVU1oIp1ojxcZT94Xvx2AR7P9EXNw6RYxccUnLznSf4GTj5OTE1f+xUKZMGVlRrVuAuDynhkhnV0C4LT8lHr0PFiEfnolLW4eJ7xzTisqTzgl/9czIevXqJS9ajMVV/fr15QYQhvK///0v+p3ZjAC2DUc3hqhuaIM8RwlnzQ1tuWle4utnBYibB48IXfML0XcoirmAgAC5kQI2uhk+fLho0qSJ3BjH1tZW/hfHGMfjeF5cr72GhOAdAevy5cvVSOxgC2b8GxH4mgr8/LBjLLpQRUmPrcBx84WdQZPyxhyJJthF24x27drJmSu0WNLHX3/9JQPdHTt2qBHjh5MvtvW9e/euGtEuwHu3mORWVRTIkFxYW9gKR5d6ot/qK+KdelwbtC3BVsQs5nDzUbduXXWkS5B4dGS26FHTRWRMZiWs7BxFgWpdxPQDD4WuORfMWKRJk8aoWsGwhIOt1HEju3btWjWiP5wj0AIxMQVL3xJuaLF6qNsH4Tm5okhp4SRqjdwoTt33FR+Dg4X/k4ti65SRYsUl3d+ngQMHfvMd6DCzi4kMzPTi5hkzv5gBxkxwrly55MwwZogxM4qgEzPH8QmBKgLdXbt2qRH9PHnyRBQsWFBMnz5djRg3bDmNlmFRisNW4LiZxXbjSVWiCXYBAa+Hh4fsjYsPYkxnFBEI9OnTRy6j7d+/X42ajqFDh8obBUO6deuWvEvECYPFHGZTEESg564hjRw5Us6eMWYo165dk+/VRYsWqZHYwWwPAjNnZ2fx7NkzNWr8cEOLmfGoBQjv3ZOEW9UCIkNya2Fh6yhc6vUTq6/oDhzDJy68vb3VSPzCzxMpa9u2bRMTJkwQrVu3lukuSM3KmjWrqF27tujXr59YsmSJPL9hC3NDQyBepEgRsWrVKjUSN5gcQOB8/vx5NWK8pk2bJnr37q2OtInbVuBYAcB240lVogp2w508eVJ+yLAMMWfOHHH9+vWvAl+cGI4dOyZ69uwpZ7zc3NxkY39ThFxR7NVuqBlt3HQgP2f27NlqhMXG9u3bRd68eeV71BDCU3P4xoMZmpeXl3B1dRWNGjUSjx49UqPRQ6BctmxZUaNGDZMKdAE3tJiQwXXKkCZOnCh++OEHdZR44HqAlUPMtE6dOlV06NBB5i07ODiIjBkzyvRDXIfnz58v0wfj8n7ATDPSKwwJqxdYecC/w5h17tw56vqd0CtinIu5sKq6WDzWIzMRm01gBSCpSpTBbri///5btG3bVi6tpEyZUs4gIKjLly+fzJsqVaqUnPHipV0h77QREEW5m1oM4KYC6Qs1a9bkXN046Nixo1wOjGsxCC4y2AEHKx2MfQvIP8V5NHXq1KJVq1bi4MGDWpeuUYSGG+p69erJ2bJ58+aZ7Dli8+bNcjLGUKkbly9fFo6OjuLBgwdqJGnA33ffvn1i5syZcidJTJLgfYQZ6kqVKslrCSZNDhw4EO11Gt/LmKTk6QOxwh9//KGOjBNm4qNMS3q9VjSwJuHU7/hXxdExcfv2bVn4mFQl6mA3opcvX8oPFQI6zPQmlYrS+IQLEb4/mPHWB76nuDtEgUR852kZG1S6Y6tlBLx+fn5qNHauXr0qA90FCxaoEca+HSxLz5gxQ+b9Yem6QIEConjx4nKVDRMOKVKkkLN4KBrC7Kapw0QMZiGjKlaLCQSBWAkypu4BWIU6fPiwmDt3riw+r1KlirxBwqQVVgQwGYBldxTzIm0DN03Y3je6YmsI9bsqNv/cQVR1dhIp7VKILCVbinE7vMSdTYuEjvoqsXr1apmGYcww444UG13iuhU4VnNwTkiqkkywC/fv35e5Q0w3FE5giQ3tR2JzQcKMMJYoEKBxoGsYCHh79OghA1bMbMQUcud++eUXOdODkzRj8Q3vXRQx4QKKGTvkcvJKz5cQ5H7//fcy4EUqmT7u3LkjA1183k0BJq2wYos8cdTZYAURtTZot4brz/r169UztQvx2SLa57YVGaqNEJs9H4m3gcEi4LW3OLnOQ1RxKidmeWtPVcCsMVaDP378qEaMD1Zn8Eun4GOijxMJ28YbhD7Z1khjwc8rqeJg1wihm0XLli3lnTSK1zBDqC1fCT0dkV9aq1YtmXuFBHRmeFiRwMwYZjSwzIQTvjZYJkLeHt7jOKl8i+U8xmJjxIgRYty4ceqIRYaAF/UiWN5FEBdTuHHAig1uaJHrauqw+oViSZwDdQp9KJbVTC4sXIYJ7fVVC8TKi7rnLLFCcerUKXVkfHbu3BlNJ6Ag4TnKWVjYlBPTtDfdFweP3NeZ4oB86m/dKeRbMsP/qf0lEr0HDx5QxYoV5X9Z9LB94rx58+T2oC9evCDNnTOZmZmRlZWV3IHn0aNHcpvbTp06UYsWLeTuQOzb0Fzc5M9h8eLFdPz4cbnNpeYCKX8WHz58oCtXrlCyZMnkDkE9e/aU+5szltBGjhwpzwv4L9MNn21sfY+tbPH51dysyp3NIsM29ps2bZLnZeyEuGzZMipQoIB61HS9f/+eMmTIQP7+/mrka2FXx1ORIuMp/cL7dKhLJortBnUdOnSQO87hv8YI1/j8+fPL+Ch5ch27ywZcpCm1vqPhd8vQsJnjqXMtV3JKHkIvr+2n1Zv9qO5Q3TskYoc67EyrCajVSNLCwa6JeP36NV29epU6duxIffv2pe+++44KFixIFhYW6hksvuAjd+vWLbmlJbbDxF77uODhZM9YYsLBbszhs7x161Z5Q3vq1CnKli0b5ciRQ27bi61bsS0+trkNv6EtX768+koWPhnz7NkzNfI133UNKWOb8+R+/D7NKG+pRmPO3d2dnJ2d5X+NVbNmzahatWryxkunj/foz1njaNqqP+nM3ZcUkrIAVWszhKaOa0suOmLkc+fOUdOmTenOnTtJNmYwzObJLNFLkyYNVapUiVKmTEllypSRJxYOdBMGZtfz5ctH1atXpzp16sgbDw50GUvasErTsmVLOnToEL1584Y2bNhAtWvXpps3b1Lv3r3pn3/+oZcvX9L69es50I3E0tKSQkJC1JE2goKDAkmY2ZCNTWzndD/B6+NnZMz69OlD06dPl6uFOtnmoHoey+nw9af0LjCEAp5fod0zdAe6MH78eHmDlpRjBg52GWOMMQNC8Obq6kqVK1emVKlSyaXfnDlzqkdZZJiECQoKIj8/PzUSmRmlyedMjuIJed16p8Zi5969e+Tk5KSOjBMmtCpUqEAeHh5qJO7WrVtHd+/elTdsSRkHu4wxxhhLMEjzQJ0Clst1sSztRp2dg2nPnGV0I1gNRvDx1iE6+kD37PDZs2epVKlS6sh4zZkzh3bs2EGrVq1SI/o7c+YM9evXT75WUq/p4WCXMcYYYwkKM5IHDhxQR1pYuZLH+glU6toQqtZgFG06/YDeBIZQyPundGnbVJp4PD2VzqY9l/f8+fNyht0U0sXw78T3ccSIEbIAUl8nT56kBg0a0IoVK6hYsWJqNOniYJcxxhhjCQpdgRBYBQYGqpGv2bkOoQOeO6lX5mM0+nsXypDMgZzKdKKV/vVpcIfCpKORgOx+0aVLF3Vk/FATgtzxX375hVq1aiUL1GMKhZajR4+mJk2ayBnd+vXrq0eSNg52GWOMMZag0LatePHitGTJEjWinW2OeuSx/DBdf/qOAkMC6PmV3TSjrQvpqq9Cru62bduoc+fOasQ0IOC9cOECZcyYUf6+f//+slgS0HYUnUEiev78OU2dOlX+HPB1+IUCamPBwS5jjDHGEtyMGTNo7Nix5O3trUbiBm0e3dzcaNiwYbKvsalBW0t8T5HGYWNjQ1WrVpWpHLipQNEkZrvRrixXrlwyIL5+/bpsn7dz507KlCmTehXjwMEuY4wxxhIc+o0PHz6cmjdvLtu3xRWCXLQcw6ymKUPP50mTJskZXWxq9O7dO/rhhx+odOnS8nu9Z88e8vX1lWkkCISNEQe7jDHGGEsUsOkRWrZh843Y5JpGhBndoUOHyiBu+/btstsD+wSpDOhK0atXLzmzi97Q2HkN/d+NGb8DGGOMMZZoYOkdWy4XKVKE/vzzTzUaM9hhFV/7999/yyKttGnTqkcY7Nq1S3ZZMDUc7DLGGGMsUZkwYQKtXbtW7tyF4BV5pNh6WZdr165Rjx49ZJus8GCXA92v7d69m4NdxhhjjLHEoEqVKuTl5UUdOnSgyZMnU+rUqeX26u7u7jR48GC54UHjxo3lzmg1atSQnQeuXr1KQ4YM4e3wtbh8+bLc3a9gwYJqxHRwsMsYY4yxRAk7d7Vu3ZpOnDghUxRGjRolgzV0V0DhVZs2bahr165yUwr0h0XAy7RDCoOx9M2NLQ52GWOMMZboYXew6tWry9SG8JldtM7y8PCQ7bUOHz6snsm0MdUUBuBglzHGGGNJlq2trSxqQ4cBtBpjX3v16hVduXJFpoGYIg52GWOMMZakNWrUSKY1/Prrr2qERbR37165qQQ2lzBFHOwyxhhjLMmbPXs2TZw4kZ49e6ZGWDhTztcFDnYZY4wxluRhy9uOHTvKbgzsM6R27N+/n4NdxhhjjLGkbuTIkXIziZMnT6oRhk4WOXPmpEyZMqkR05Okgt3MmTPTmTNn1BGLKSSmI19n1qxZVLt2bXki2LhxI929e1c9gzHGGEv6kidPTlOmTJHFamFhYWrUtJl6CgOYCWwinYjduXOHzp49KwOzoKAgmVydJ08eubdz9uzZ1bNYZB8/fqTffvuN5s6dS7dv36YSJUpQoUKFKFmyZBQcHCy/r7hxwMkA+2N3796d+xMyxr7w+vVr+d80adLI/7KYuX//vrxuPXz4kN68eUNZsmQhFxcXubsXOgewb69y5cr/9eA1dXjvrVy5UsZNpipRBrsvXrygJUuW0MKFC+VxyZIlKX/+/DLQRRB3/fp1GajZ2dnRTz/9JHN0sLMK+wS5OZ07d5b7iuPutlatWmRmZqYe/RK2WJw3b54MjNG3cNCgQWRuztktjJkibMeKHajQsxQrQrg8pEyZklxdXalo0aKywT/T7vHjx7RgwQJavny5/L4hsMiaNavcserdu3d08eJFee2qVKmSPC/Xq1dP53mZxd2lS5fktQ/fc1OOD7y9val8+fLy/WnK77dEFezir4KTBXZIadKkiTwhIGDTBQEv2oxgif6XX36h9u3bq0dME75/AwcOpC1bttCyZctk8+2YwkwEbhoCAwPlHuQ8k8OY6UAghnPp77//LtPFsBKUIUMGeXHE7C6C31u3blGdOnXkedlUe3Vqg5WyCRMmyO9fq1at5ASMru1YMVmD7/GcOXNk0dCqVauivMaxuMHmE4AVTlOF9+WFCxfkTZhJQ7CbGLx//17UrVtXlC1bVty4cUONxoynp6dwdXUVzZs3F5pgTY2alrCwMNGjRw9RoUIF8ebNGzUaO3iNQYMGiWLFiolXr16pUcaYsdIEsqJ169YiS5YsQhOwiefPn6tHvvb27Vsxb948UaBAAaG5kRaaG2T1iOl69OiRKF68uKhfv754/PixGo2ZlStXCkdHR6EJRtQIMzS8vzU3bTJGMFW1a9cWW7ZsUUemK1EEuwh0q1SpItzc3ITmbleNxg6C3GbNmokGDRqYZMA7ceJEeaOAC1JcDRw4UHz33Xcy+GWMGafTp0+LzJkziz59+ogPHz6o0ejhHD158mQZqG3fvl2Nmh4Euvny5ZPnXn3du3dP5MmTR0yfPl2NMENbvHixqFSpkjoyLf7+/sLBwUG8e/dOjZiuRBHstmjRQrRv316EhoaqEf0EBweLJk2aiK5du6oR03Dx4kV54Xn48KEaiRv8HCpWrChmzZqlRhhjxgSBbvr06cXOnTvVSOydPXtWZMyYUWzdulWNmA5MqGA1cdKkSWpEfzhv58qVS2zatEmNMEPC9axEiRJi3bp1asR0bNu2TdSoUUMdmbYED3Y3bNggnJ2dxcePH9VI3GBmM3v27GLv3r1qxPhVq1ZNLFmyRB0Zxu3bt0Xq1KnlMhBjzHhgRhJLu7t27VIj+rtw4YIMmhH4mpKhQ4fKiRVDwc0HfiZPnz5VI8yQTp48KVN1TG2Gs3PnzjxppSRogRoS+3PkyEHbt283aEuMAwcOkLu7O924ccPoqw+vXLkii0bu3bsnq34NqV27drJ4AkVvjDHjgC4AZcuWlYXAhrB+/Xq5Reu5c+dMYt99VLeXLl1adq3QBPpqNO6GDRtGz58/p6VLl6oRZkhubm7y54UevKYAoR1a3v3999+UO3duNWq6ErTH1KZNm8jZ2dngvd9q1qwp2+Xs2bNHjRgvdF1An9zoAt2wt9doywQ3quaSmVLZp6SspX6k8Ttv0N3fF9MOX/WkSHDDgNdnjBmHP/74Q7YgQmBlKOhAgN7naGFoCvDvROcaQwa6MGDAANq6dats+cYMb/LkybIjwc2bN9WIcUMHBgcHBw50lQQNdvHGQ5uWqIXR22tbaIJbNXLJnIrsU2alUj+Op5037tLvi3eQjjhNvq4pBGrYBjC6FmOhj7ZSx+IlyP1wFnJff4YevnlFt/ZPppr+K6lT35V0z0/7LjOYvcCFMbyxPGMsaUPLK/TTNvQq0PDhw2V7J2PfsQp9iNGc/1tct9KmTUuNGjWitWvXqhFmSGilh5u83r17qxHjhl3TGjRooI5YguXsoqIXVYJRt8kKET5b2ovcthlEtRGbheejtyIwOEC89j4p1nlUEU7lZglvHTVtaIuTKVMmdWScgoKChL29vexmoVPoQ7GsZnJh4TJMnNFScP3+1AKx8qLuDhjokrFv3z51xBhLqry9vWVeKM4bUQr1E1c3/yw6VHUWTintRIosJUXLcTuE151NYtF23Tn8pUqVEvv371dHxuny5csif/786kgX/a9bmkBXttBk3waK2FEjZApdRPB5/Ouvv9QRS7CZXS8vL9IEozLdQJcwn1Xk1n4t2fbfRbvGNyVXJweytrSl1DnKUqtJu2lbu1T0VkfGcbZs2eRd+KNHj9SI8cFyV4oUKUgT8KqRr4VdX0EzDgVS5T49qYSdGozAvnR3al/EQh19DTnVmN1ljCVtWAXCFqpWVlZqRIvQR7S1Y3Eq4X6YsrivpzMP39CrW/tpck1/WtmpL62850e65m5r1Kgh/wxjho2Moku7i8t1C6+NP4N9G1jRwCYL/fv3lxt8YBMlbJhy6NAh+Qu/x1hShF36/v33Xzp48CBt3rxZ1ixh5zT2SYIFu0+ePJEBqW5hdH3FDDoUWJn69CxBX8dp9lS6e3uKIk6TWzU+ffpUHRkfBPPRLUf6eZ6mW2GOVNTFkfQp1cPro5CQMZa0nT17NppALYx8VrlR+7W21H/XLhrf1JWcHKzJ0jY15Sjbiibt3kbtUr0lXRXNeG38GcbMx8dHTgDoFrfrVs6cOY16giYxKFasGCVLlkzmsmKnUORfT5o0Sf7C7zGG9/K0adPI11dXomTigJ1PhwwZInfsc3Jyoj59+sgCvJEjR8qUonTp0lG1atVo9erVSTaIN5QEC3axVWLUgZofeZ6+RWGORcnFUb+OCnh9/DnGys7OTt7N6SYoOCiQhJkN2djo9z309/eXJwbGWNKGICp79uzqSIuw67RixiEKrNyHempfBqLu7YuQrvkFBIHGHqjhehLlzHgcr1t4bWO+ZiUkTNqMGTNGBrl58+aV1zbM5Hp6esrZUPzC77FiOn36dLp06ZJ8Lr4msU34vHnzhjp06CC39cak14YNG+TYqVOnZDcqbPl/7NgxevjwoQyA0TEFn31sT22qEizYRQAVZaAmgikoUJCZjSZQ07N7GN7MUS3xJ3W4A0XA++DBAzUSmRmlyedMjuIJed2KKijWDXvmu7i4qCPGWFIV7QSDnyedvhVGjkVdSJ/5BVNYBcL59v379+pIizhet/Da+DOYYd25c4fKlCkj2+OhXeeWLVtk4Ic0wMhsbW1lug9mQ/FcfA2+Fq+RGBw9epQKFy4sU0Axs4sZ6KJFi5KFxefbUATzrq6u8jkoety7d6/8NXPmTGrcuDG9fftWPdN0JFiwi5ZjeCMJXW1+zdJQPmdHEk+8SJ84Dfk46IeYL18+NWKcosvxsiztRp2dg2nPnGV0Q8t16OOtQ3T0gfaZBNyM4M6Qg13Gkj7c+GMCQBcRHESBwkz2ytVnfgGBmrGvAuG6dfnyZXWkRRyvW5hNxJI0M5zbt29T1apVqVOnTrL1Hpb7AUEf6oaigufia5DegNfAayUkzNo2b95cdrKaPXt2rD5vCIgRK+DfXLt2bZMLeBMs2EWbFfxCErV2llTarTM5B++hOctu0Ndx2ke6dego6YjTZI85nDSMvck5GsRjCUMnK1fyWD+BSl0bQtUajKJNpx/Qm8AQCnn/lC5tm0oTj6en0tm0z/Zs3LhR5vtEnW7CGEsKcD6MKlAzS5OPnB0FPfG6RfqsAyFQQzBozKIvIIvbdSsmBXAs5pCSgNacSEVA33h99ezZk0aPHi1fK6FacSLlonXr1rRt2za5l4A+kCazYMECKlmyJH3//fdG3yowogQLdqF+/foyl0QXK1cPWj+hFF0bUo0ajNpEpx+8ocCQEHr/9BJtmzqRjqcvTTriNPm6CASNXdu2benIkSNyBlYXO9chdMBzJ/XKfIxGf+9CGZI5kFOZTrTSvz4N7lBYSxHFJ6ha7dWrlzpijCVl6Jt9+vRpdaSFZWly6+xMwXvm0DLty0B06OgD0pVRitc29kANs2KY7UPlvi5xuW5hggE7YjLDQD/kZs2ayZnZuMLMcNOmTWPQY9nwUFyGHU1nzZpFFSpUUKP6Q79tc3NzmQJhMj51IEsYXl5eImPGjOLjx49qRJsA4b17knCrWkBkSG4tLGwdhUu9fmL1Fd17XPv5+Yk0adLIPeBNwfDhw4XmA62ODGPp0qWiRIkS6ogxltT5+/uLtGnTigcPHqgRLT54iskVUwoLp1pi5MZT4r7vRxEc7C+eXNwqpoxcIS5p6dUNAQEBwtHRUdy+fVuNGK/FixeLRo0aqSNdYn/dOnfunMiRI4fsQc/ibs+ePaJAgQLyvWkoeC28Jl47Pv3888/ihx9+UEeGce/ePZEuXbqozwdGJEGDXcAPcMSIEerIMNzd3YXmLkwdGT/cLKBR9rp169RI3KD5PC5caKDOGDMeffv2FUOHDlVHOgR4i92T3ETVAhlEcmsLYevoIur1Wy2iiNPEsmXLRP369dWRccMmPlmyZBGHDx9WI3EXFhYmvvvuO/Hrr7+qERZXNWvWlJt0GNqaNWtErVq11NG3h01gsEHW1atX1YjhxOh8YCQSPNh98uSJ3NXn33//VSNxgx18smbNKnx9fdWIabhw4YJInz59nO84Hz58KHLnzi3mzZunRhhjxiL8RvbOnTtqJO6wCybOuUePHlUjxg/nWczCYhXREGbOnCkqVqwoQkN1bK3GYuXWrVty1TgwMFCN6KDHboF4Tbx2fK1ibNq0SVSvXl0d6Rbqd1Vs/rmDqOrsJFLapRBZSrYU43Z4iTubFgldGx/i34C4ATvLGbsEzdkFzZuGli5dKisjUeAQFydPnqQ2bdrIliGpUqVSo6YBlZborde+fXu5d7s+kABfpUoVmZOUEHlJjLFvC71whw0bJnt0oj+nIfTu3ZsaNmwo2zWZCuTVNmnSRNaFRN3rPHrI0506dapshYU8ShZ3aM9Vq1Ytsra2ViNa6LlbIF4TBWL4M+LDX3/9JT9fUQl9tJU6Fi9B7oezkPv6M/TwzSu6tX8y1fRfSZ36rqR7ftoL0dBHGBtPoDOW0VNBb4LbvHmzvFvau3evGomdLVu2yDsUfb/eUJDT8/jxY5kvrDkJqtH4o7lhEIULF5Z5RT/++KMajRpmwZFKgu/fhg0b1ChjzBhhybxBgwaiZcuWcc4P1QTOwtXVVeYDmxp8H3v06CHKli0r8x9jC18/d+5cuUStCTbUKDOEbt26RZMSEioeLqspklu4iGFntCSivz8lFqy8KHR9OubMmSO6d++ujr6tUqVKiePHj6sjLUIfimU1kwsLl2FC+z9lgVh5UffnvH379mLJkiXqyHglmttIVDmig4LmTUpdu3aN8U486KWLdhz4Os0J3CCVirGFO7wuXbpQkSJFZDu14sWLy6pkzFrnyZOH/ve//8km1oaaSdEFr4+KaLRGQbsw9OSrW7curVixQt65RWwzgu4NW7duld+3XLlyyebU2D1GEyCrZzDGjJGZmZncOx99NnHe1aeVEvqYox3T7t27ZWeChOyvi78LtnXFv0dzTVOj3x6+j/PmzaMffvjhv3P+4cOH1aNR8/Lykr1O16xZI68f3MvcsO7evRt1j/047haI18afER+wmUX+/PnV0dfCrq+gGYcCqXKfnqT9n9Kd2uvan1oDr51YNsz4lhLVmgmaNqMPpIODgwwcW7RoIVMSrl279l+giF2A8Bw0VcbOIGing6U5zZ2PfAw7h+AEFB87+ezfv1/uUqK5u5cnKwSVOOk+efJEBus4+aIhNZZT0AAa+54vXrxYfbVh7dq1S/5dcPJEEIvvEf4OrVq1kidgtF9Bz2FclNBrD983pDtgGeP69evy+xxdg23GmHHAuQD9OnFOwrl206ZNMb4ZR3CLtKkdO3bQuHHj5A1+fEJwiyX/li1byhv11KlTy0mFrFmzyt/jOjJixAg5EfKtoY+rj4+PnEjAdq2Y2Bg+fLj8Hvn5+alnaQISzeM4z+LvjesB/o5YCsd1C9csZlhBQUFR99iP426B2GUN7cDiQ3T/Fj/P03QrzJGKujjqtRlMfP5bEtSnCd7EBykACxcuFJqTh9CcyIS5ubmwtLQUFhYWQnMnItq0aSM0Aa/48OHLefuLFy+KOnXqyK/ZuHGjGjUs/Jldu3YV2bNnF5ogU41G7/z580ITZMpKTqQ6GMKpU6dkFa8m2BaawFqNaqe5mMlKYlR3MsYYoLCsXLly8nw2fvx4ceTIkS9SsJCadfLkSTFjxgyZIoXOLyiawfkVxax169aV6VPfGs5baMGEdKt69eoJzQ26bF+JdIBwmuBT7Nu3TwwcOFAW4n3//feyWMnQcA2YMGGCbN3Uq1cv8fz5czmOv8+QIUNEpUqVRPLkyUWKFClkG0xNQCG/V0gtQ4eAaAunWJygEwPeB7qEPVsualqZiZweZ3WmKkQF6ZK4jjdu3FhYWVl901/W1tbi5cuX6k+OLEw8W15TWJnlFB5n9UtJmjhxovDw8FBHxivRBrvaxKZiUHNnLfvEIt/lr7/+UqNxh5NcjRo1ZL7b27dv1WjMIUdu1KhRMhhH5wN9oYqyefPmInPmzLInLvdmZIzFxdmzZ2UrovLlywt7e3v5K1myZMLGxkYUL15c5igePHhQPfsTBKDIjUS9Rbt27cT9+/fVI4aFtkvFihWTucYxDV5xrkaAjoAUubGGgAkDtFlD6zGcf6OqyMdz0a0BAbghe72y6OG9Onv2bHWkRfAx0ceJhG3jDUKfvk2zZs2S+dqISXDj8i1/IYY5duyY+pO/Fnysj3AiW9F4g34dqNq2bStjCGOXpILd2MId/2+//SbvqDETENe+sTh51a5dW57U8fu4mD59ugx4cSKMDcwg9OzZU57AMbMQeWabMcbiCudOrAKh8Cwm5zrc+I8cOVJuWoFZ1devdfQ60gM2W0B7Sn0vyDdv3pRFdJhxjQus4hUqVEiupGFFjSVeWPXF6q9uQcJzlLOwsCknpnlpWekMuCkOHrkvdE2vtW7dWqxYsUIdfVvYNwA3bToFeYpRzhbCptw0of2fclAcua97ohDF7FgRN3ZGHeyGw+wDqidxwuzQoYPeO4ZMmzZNnujiGuiG6927t2jVqpU6ihouPFjCQ5CLr3vx4oV6hDHGEgf0TcesGlIIpk6dGucZzWvXrsnz9o4dO9SIfjCpgJnhMWPGqJGYO336tKhSpYpM34guVYwlDnfv3pXpLlHuzhqH3QLx2vgz4gM6TeH9F5UPnpNFxZQWwqnWSLHx1H3h+zFYBPs/ERe3ThEjV1wSuqbEbty4IT9fprAybBLBbjjMPqDFFmYfBg8eHKuNJ/DGxgnckG9wzMrmy5cvyrxfvAnRFgTpCkidMIXtOBljSRtyV7E7ZrZs2cTKlSv1miDAEjHSJ7A9ryFggsDJySnKJeGIsPEGzrlIWeBUsaQHtTt470VJj90CMaOLPPX4gs8Brv/R5cUHeO8Wk9yqigIZkgtrC1vh6FJP9Ft9RUTVABX55obewTaxMqlgNxyKw1BghruzX375Jeq7PwW5bN8iiRuFHpgt1mbnzp1yNgF3dZhdYIyxpOTEiRNyZ7AiRYqIP//8U43GzKRJk2T6mSHhnJo3b94oi3QRFGP1LDxVDKtqLOk5cOCATBU05M8Pr4XXxGvHp8mTJ4uGDRuqI8PAxBne4z4+PmrEuJlksBvu+vXrspoSVcirVq3SOfuANzhmg/VNf4gK7towcxDxrg35YJUrV5b5YbHp9sAYY4kR0hAKFiwoqlatKs6cOaNGdcMEBJZXMUNsaPg7oJYjssgdFjhVLOlD3i5uXAwF7wsUdMU33Jwh7xxxiiEg1kHHEGxTbSpMOtgNh2UtVCBj9gF7nkd2+PBhUaFCBXUUQfApMTifJbqYCzNbV+FxPOKCQbC4MLKQsNQ8Jh9P00Hs0jGBjA8Q8oFRZYwKXwS/qPg1VG4wY4wltIgpWS1atIgyJQvtudDa6VtADiRmm8Ph74U0BZx3o/t7saQFqYo5c+YU8+bNUyP6w2vgtWKT/mhIKCLDanRcu0uh+LRLly6yq1TEtn3GjoPdCLZv3y4rE6tVqybb8ISbMmWKTGPQKeio6JPTWtjk7S72vor45gkWrw/2FmVbrhGPo2hti7Y4WBrBjAJ63nGHBcaYscJKWfgMKjrLhPeojQjV7qiojyz41GCRzxITCGbC1tVDfDm/cEGMLPRp8gGPp+mwS2ibX8BqGnrgooYDBWfoUc6pYsbL29tb5MiRQ04o6RPc4WuQ7ojXwGslJPTARu2Qviu+KK5zc3OTs7qmtsU3B7uR4C4fBRGYfUADcBQp4M0RZdsbTbA7sN0gMbpOBpH1x9/EowgTsqHev4r2HsdFVNs4oB8wTvy8bMYYMxU43/Xp00emiI0bN+6Liy8Kd69cuaKOvhZ0tI/IaW0j8nbfK76cX3gtDvYuK1queRzlORerePiFQJdTxYzfvXv3RNmyZeVsZmwCVjwXX4OvxWskBsiDR+DduXNn8ebNGzUaPWwMg1QiFF2aWqALiWq74MTAwsKCunTpQjdv3qRChQpRmTJl6NixY9FupWlmlZe6rlxKtc/1pc5LblOIGo8JbPGbJk0a0gS8aoQxxowbznezZs2iM2fOyK10NQEuLVq0SG4HjK1+NRdm9UxtrKhSHw/Kva0LuW96TGFqlCxTUu68+SlnrnSaZ2iH7efv3LlDhQsXposXL1L9+vXVI8xYZc+eXV7Hq1evTiVLlqTmzZvL7f7fvXunnvEZtvnHY3gOnqsJduXX4jUSg3LlytGlS5fI0tJSbpft7u5O//77r9Ytf58/f04bN26kKlWqyH/PmDFj6LfffqNkyZKpZ5gODnZ1sLe3l3uc4yRsbm5OI0eOpJCQqENY8/QNaPb6HuQ71o2mX4r5XtNhYWFkZaXr1MwYY8YrZ86ctH79evrjjz9o8+bNVKRIETnpgPOubmZklbcrrVxam8717UxLbsd8esHZ2Zm6du1KRYsWlX8OMw34WXt4eNC9e/dk8Dd+/HhycnKi/PnzU4UKFeQv/D5z5szyMTwHzx0yZEiie584ODjQggUL6MqVK+To6Eg//fSTnDBzdXWlSpUqyYAYwTluGFetWiUDYtxAtmjRQr2C6eFgNxqYfWjatCl17txZ3klFx77kMFo/IS0t6DCGTvirwWjcvXuXsmTJoo4YY8z0FC9enA4cOEAzZsyQs1QIOKJmTukbzKb1PXxprNt0isX8Ak8wmLDkyZPL4O+ff/6hN2/e0LZt22jq1KnyF36PMTyG5+C5iVmmTJnkbO358+fp1atXMrCdNGmS/AwdPnxYjv35559yVjcm8Ysx42A3BrCUgeWumLGknB2W0aLyu6jLoL30CuUS0cAyXqlSpdQRY4yZrgYNGlDq1Knpf//7nxqJij2VHLaeJqRdQB3GnKAYzi/IGTvM4DHThhlbzPSHz+zi90l1tt/W1lauVlSsWFHO7ObOnVs9woCD3RjAG+fkyZP04cMHNRINs7RU+5c11PZaf+q56dHnfDIdkB+ENyhjjDGSN/9IIYsRy5zUYdkiKr+rCw3a+0r2eowOTzAwZlo42I2BjBkzUuXKlWnt2rVq5EvBL+6St9dtuv02QhGbXVEatGY4hS2cS2eC1ZgWZ8+elUnkNWvWVCOMMWbaMMuGlIaYMktbm35Z05au9e9Jmx5FPb2AAjUzM7NEU3DEGPv2ONiNoT59+tC0adNkpXBEgTvbUrosbrT5+FSq5FiGJl7/HPBaZGtFS5Z1o7zWakAL5KX17NkzmmIMxhgzHW5ubrRu3Try99eWmBBML+56k9ft2/Tl/MIgWjM8jBbOPaN5hm5z586VNRiMMdNhhv5j6vcsGsghQ0I4kr9jLkRzwg6h5Mlt1fFnmClGUjxmd62to4iIGWPMxKByvFixYjR06FA1AoG0s216arz2rUxXsCoxgS6eGkYFw9MsxRs6PKgdHfxhC00s/3UBmo+Pj6xYRxU7zuWMMdPAwW4svH79WiaAo9qxdevWalQ/yBlDf8d9+/bJEzpjjLHP7t+/L/Nqjxw5IguHYizEn/xDkpOW+QWqVasWVa1aNVIAzRgzdrx2HgvoY4fgdPDgwbLFh75Q7IaK4xUrVnCgyxhjWiCnFhMLaJv04sULNRoDltoDXfRKxyYCOH8zxkwLB7uxhCbNBw8epAkTJlDbtm1lT76YCg4OptGjR1OTJk1ksMw79zDGmG6dOnWSwW61atXo6dOnajR2sHiJQHfHjh20c+dO3kiCMRPEwa4eEPB6enrKXpB58+algQMH0u3bt9WjX8OsBHJz8dwLFy7IX3Xq1FGPMsYY0wVN89u0aSNXwbDDWmw8fPhQpi5gguLQoUNytynGmOnhnN04QnPy+fPn0+rVq2VHBWxAkSFDBvl7X19fubMJgl3M5vbu3VvuEsQYYyx2Tp8+TR06dJDpZL169ZLnVF2FvShAmzdvHm3atElORiB1gWd0GTNdHOwa0IMHD+jcuXP08uVLuXSWIkUKWdCG/bbR15Exxpj+QkNDZToC2oedOnWKChUqREWKFJHbuoaEhMjJBxT/IghGe7Fu3brJyQfGmGnjYJcxxliS8/79e5kShk0i8HsrKyu5BTA6OGTJkkU9izHGONhljDHGGGNGjAvUGGOMMcaY0eJglzHGGGOMGS0OdhljjDHGmNHiYJcxxhhjjBktDnYZY4wxxpjR4mCXMcYYY4wZLQ52GWOMMcaY0eJglzHGGGOMGS0OdhljjDHGmNHiYJcxxhhjjBktDnYZY4wxxpjR4mCXMcYYY4wZLQ52GWOMMcaY0eJglzHGGGOMGS0OdhljjDHGmNHiYJcxxhhjjBktDnYZY4wxxpjR4mCXMcYYY4wZLQ52GWOMMcaY0eJglzHGGGOMGS0OdhljjDHGmNHiYJcxxhhjjBktDnYZY4wxxpjR4mCXMcYYY4wZLQ52GWOMMcaY0eJglzHGGGOMGS0OdhljjDHGmNHiYJcxxhhjjBktDnYZY4wxxpjR4mCXMcYYY4wZLQ52GWOMMcaY0eJglzHGGGOMGS0OdhljjDHGmNHiYJcxxhhjjBktDnYZY4wxxpjR4mCXMcYYY4wZLQ52GWOMMcaY0eJglzHGGGOMGS0OdhljjDHGmNHiYJcxxhhjjBktDnYZY4wxxpjR4mCXMcYYY4wZLQ52GWOMMcaY0eJglzHGGGOMGS0OdhljjDHGmNHiYJcxxhhjjBktDnYZY4wxxpjR4mCXMcYYY4wZLQ52GWOMMcaY0eJglzHGGGOMGS0OdhljjDHGmNHiYJcxxhhjjBktDnaVMO+FVDdnbZp3J1RzFEqvLqyn4U1cqd6suxT26Sn6C/OmhXVzUu15dzSvzBhjjDHG4kuCBbvC/xr9PqoVVcqfgRxsrClZpmLUZOh6OntyBa08FqyepeF/gRa1L0NZU9pRimwVyH3TXYrw6H/CHs2n6jZmZGb26Ze5uSXZpspMhWq509LzfiTU83Qxz9md9njvI/fcFppY9wYt7+tO03d40ds4R7oa5jmp+x5v2ueemzSvzhhjjDHG4kmCBLvi+T7qX6kcdd+bktos+Jvu+r4n35u7aUyFRzS1w0D684kKZ4Uf/b1yH6Ue+Cfd9LlOW9uZ0bruQ2m736eHIzLP/BMdeH2VJlWwJutK0+jG+/f0+MQcqvZyFXWv3Y5WPYhF1GrhTIMOn6DRJSzVAGOMMcYYS4riP9gNe0zrerSlee/b0MZ986lbtfzkaG9F1g5O5NpgEK3fPZEKB/h+Sh0wS07luw+hFoXTkp1DDqryQxXKam1FVjr+1ubJclPezBZkZp2MktnaUBrnpjRpXDNK83ovrf7jsXpWDJnZkb2dmTpgjDHGGGNJUbwHuyGXF9MvO/2orPsgqpb662DSMk83Gtkus/qLWZClpeY5wb506+gK6t97B+WdOIYaOMgHY8TSzo6sNf8VAokMgp7vG0gV0luSvWtf2vHn7/THfU1YHfKSzq0dRo1d69Gsu7pngEOfHaaJTYtSejtrss9chjrMO0d+/+VHhJDP3lHUsEBqstAEylkq9qLN3pihDqGX59bSsMbh+b8h9OLsGhrayJUa/fov7RpWi3KnSkHZak6mU/6fXokxxhhjjBlGPAe7gl6cPEY3RHoq4hoe0EZH0Ms1ralwlY4092IwWfi9oLfRJOCKIH96FxBE7+7soXFjNtITu1LUoKYTUdhlmt3/Av3v37fkd3IQpTrzDz1GrHt1IfXsOZ12er3VXYwWdJkm1W1L/9ZYRddfvaJL80vRuX7fUbNlD+TXBJzwoOrut6nl9gcU8PYYdQ1cQUOXXcGL08KePWn6TpX/G3KZFrj3ohl/XKMre/fSux9W0blz08n1/GSaue+9/KMYY4wxxphhxHuwGxgYREIEUVDQlxFr8IkBlMcyvMDMnNK67aZA+YgZpeu4nZ7cPUW/D8hBJ4f8QH13+MpHdAm9s546l8lGGZ2b0VLf8jR4/Trqnd9C81JpKEvqy7Rx2R66HpCBvhs9h7rlNCdL1xF07N8xFFWKbsChaTT9YWMa2NmV0to7UJ5G02hul+R0aOZKuh72nvbPWUKpe0+kVgUcyNqhBI0640+3fi5GmhenEcf+pTHhL25ZjEadOE6jitlQ9nqdqWXJTJQqR0UqnyuEXr/yj7aQ7lsIDg6m48eP06xZs6hTp07UsmVLatWqFfXv35/Wr19Pd+/eVc9kjDHGGEta4jnYNadMhVzIkV7T8aOXv+iqYFV+Gl25s5gapLCgLB130u1l9clGPUZkTalzlqamo9fTjCahdPzvq2pcO8uCXWnjpaf0PvA9PbuyiyZ9n52s8IBZFur2x17q9HE5/ZDdkYp1XUs3AuSXkJmtPelO0Q2jJzeu01sbO7L97ztmS0XKFSNzHx96FvKKHtwLpHSOKbV/Q81sv8z/NbMjuy/+MAuysDBTqRbx5/nz5zRmzBjKnj079enTh27dukVly5alH374gRo0aEAZM2akbdu2UYUKFahKlSq0devWeP87MsYYY4zFRTwHu0Q2lbtRt2JW5LVoFK24E6JGwYxsM+WmrMktKG22bOSg7W9m5kDZsqUjp8wZ1UDsmacuTh2m76bbz/+lrvd6UIPJV9QjUTEnx6xZyerR33QCOb6SoMCPgWTpUoTyWKamTE5EZ/+5SB/Vo4nd2rVrqXDhwjLgPXToEJ09e5bmzZtHXbp0+W9md/DgwfT777/Tw4cP6aeffqLJkydT9erV6d69e+pVGGPxwd/fnw4fPkxTpkyRqy+tW7emDh06yJvV3bt306tXr9QzGWOMRRbvwS5ZFaXBq2dSA7sD1Lv69zR83Qm66/uRgj++IZ8rV8nnU+7C10Lf0/3DU2nsX6Wob5vcavBLIuAe3X0cSqFPb9Odt1q2bwg9RzPcZ9Oxh+8o2DIVOWWwow/v8QcK+vDwAb0IeUkPfT7IVALxwYcevgyhlz4+9EEz4FCnD3XLeYbGdptFZ14GUsDjv2n24lv0w6AfKau5A1Xv2JxClrjTgB13yD8kiHxv76W5K07JP1Z8eEgPXmhe6+Gn1xIBmtd+HkwvHz2mjzj+8ISe+IbQC82fFfCNJ07DwsKoc+fO8qK5d+9emj9/PhUsWFA9qp2lpSW1aNGC/v33X6pbty6VLl2a/vrrL/UoY+xbuXnzJrm7u2tu8rPJwBY3p+XLl6f69evL1ZaQkBCaPXs25cmTR96gnj59Wn0lY4yx/4gEEvzspFg6qLmomD+jcLC2EBZW9iJN1sKiepshYvmZ1yIMT/r4rxhTOq2wsbAS9unyiPL/Gyv+uPNRfn1koT7zRDXrT3Gq/GXpKsZcDFaPKiEXxK5Nh8SKjoWEHdmIXPUniH9eh4nQ29NEufCvtSojply/J+ZWtVavZSkKDj0jvzzwzmbRr3oukVzz90mRu6pwX3lZ+MtH4L24uryLKJvFXlgnzyW+67FMXHynGQ69LaaVC38tK1Fm0l4xpYzVf6/tMniO6JXTQh1bi0qzvEXopxc0uNDQUNGhQwdRrVo18f79ezUae0eOHBGOjo5CE/CqEcaYIQUHB4tx48bJz9nIkSPF48eP1SPavXnzRsycOVNkzZpVdOvWTbx7h5MPY4wxMMP/aQItZgKmTZsmc3APHDhA9vb2alQ/moBXpjtcuHCBnJyc1ChjLK40gaqcucVndNmyZZQ5c2b1SPTevn0rC0v//vtvOnjwoJwRZowxU8fBrom4fv06fffdd3KZM0eOHGo0bsaOHStfDzmDjLG4Q6Bbu3ZtKlasmMyh19evv/4qu6sg3YgDXsaYqeNg10Q0bdqUKleuLLsuGAryBYsUKSIvylWrVlWjjDF9/fjjj+Tg4EBLlixRI/qbPn06bdiwQebaI++eMcZMFQe7JuDBgwdUvHhxun//PiVLlkyNGsbChQtp//79si0ZY0x/6HwyatQomRpka2urRuMGBaXlypWTr8sYY6Yq/rsxsHj322+/yRmj6ALd0FdnafnAJlQqe2qys7GndPm+ow6T/6R7UfRTa9euncwNRK4gY0w/6JIyZMgQWrp0qcECXcDrIZ2BW5MxxkwZB7sm4NSpU1SxYkV1pF3Q7eXUzLUGzQ1oRotPPaJ371+R17YBlHVfeypWdSydfKeeGAmKaJDKcO7cOTXCGIutXbt2UYYMGeQGLoaE4rZGjRrJQjfGGDNVHOyaAASiJUuWVEdahFyj6S160AHnabTz19ZULKM9WVraUTqX72n8tpXU6N44ajH4EOmId6lUqVIc7DIWB2vWrKFu3bqpI93C3l6jLRPcqJpLZkpln5KylvqRxu+8QXd/X0y6dlHv3r07rV69Wh0xxpjp4WDXBLx8+VJu/atLyOklNM/Tgup0aUFZIr8jUtWijs3Sk8/qebTnjRqLBDNS+DMYY/rB6gsKSKMS+mgrdSxegtwPZyH39Wfo4ZtXdGv/ZKrpv5I69V1J9/zCd3f8UokSJWS+PnZhY4wxU8TBrglADaK5ua4ftaCX1y7Rc8pE+XJry+m1oFwF85BFwGW6dE/LrnQaeG3kHDLGYu/Fixf0/v17ypUrlxrRIsyHVrm1p7W2/WnXrvHU1NWJHKwtyTZ1DirbahLt3taOUr3VXmuMTgxINTp//rwaYYwx08LBrglIkSIFvX79Wh3pEqYJWNVvv2BG5pqLpbnmfxY63i147ZQpU6ojxlhsYFUEqyNRCbu+gmYcCqTKfXpSCTs1GIF96e7UvoiFOvoar74wxqKClR9sRoOUquXLl9P69etlemJwcLB6RtLGwa4JKFq0aBSzOmaUrmBhchRP6IqXnxqLKJQe37lLIcmKU9Gc2i+meG38GYyx2It65eUTP8/TdCvMkYq6OGo+sbHHqy+Mscg+fPhAixcvljU9SHX08PCQrUSPHz9Of/zxB7m5uVGqVKnkRjc7d+5M0ucQDnZNAArI0FheF8syHalboRA6uGAN3Q5Rg+He/U3Lf3tEOTr2oNoOaiyC0NDQ6AvgGGM6YRMJX18d1WWSoOCgQBJmNmRjo0+oS/TmzRu5wsMYY4CZ25w5c9Kff/5JkydPlueIEydOyJlddG/BhjSXLl2i58+fU/v27WnixInk4uISZSyRmHGwawKwe9ratWtlYKqVZREavGEmVbo5lBp2XUGnH3+gkNAAen55Gw1v+CNtyvEzbZ5YmezV0yPasWMHOTs7R7sMyxjTLmvWrPTx40d69uyZGonMjNLkc5arL163dPVEiRo2quDVFxal0Fd0Yf1wauJaj2bdVTN4Yd60sG5Oqj3vDum4erAkBueali1b0qRJk2jPnj20fft2qlGjhs5dFtGfv1WrVjLI/fnnn6lJkyY0fvx49WjSwcGuCXB1daUcOXLQli1b1MjXbAv1oj8v7qEethuoY4n0ZG+Xlgq1mEsvvl9Pngc8qLiO/Shmz55NvXr1UkeMMX1gZSTK1ZfSbtTZOZj2zFlGN7Sk0H28dYiOPoi8LPPJzZs3KXny5JQ+fXo1wuKT8L9Gv49qRZXyZyAHG2tKlqkYNRm6ns6eXEErj2nPh3x3fCgVy9CWdgaqgYjCHtH86jZkZmb26Ze5OVnapqLMhWqR+9Lz5KfnnqihN5ZTX/fptMPrLf23WG2ek7rv8aZ97rlJd0Y4SyoQ6KLvNgJbrMhiZ9XYwMTZxYsXadu2bTLlIUnBdsHM+B06dEhky5ZNvHnzRo3E3apVq0SRIkVEcHCwGmGMxVZoaKiYM2eOaNy4sRrR7oPnZFExpYVwqjVSbDx1X/h+DBbB/k/Exa1TxMgVl8QH9bzINBcl0a9fP3XE4lPYs72ib9EUIk2p7mLhIS/x/H2QCHz7SHj+MVU0z5dGNN/0Xj3zs7Bnu8SQGvlEqlRtxI6PajCyUH9xdVIFYW1dSUy7+UF8fHVVbO5VTCSzSCe+X3FfhKqnxVbItYmipH0FMf2Ovq/AErOWLVuKVq1aiZCQEDWin1evXolixYqJmTNnqpHEj2d2TUS1atWofv369NNPP8mCmLjy9vamQYMGyWb1upY/GGO6odhj3bp1Mg0IrceOHTsmP1e62LkOoQOeO6lX5mM0+nsXypDMgZzKdKKV/vVpcIfCpKVJgyxAQWW1u7u7GmHxJuwxrevRlua9b0Mb982nbtXyk6O9FVk7OJFrg0G0fvdEKhzg+3kWFUK9ae2U01TRvQ6ljio92zwZ5c6bmSzMrClZMluySeNMTSeNo2ZpXtPe1X/QYz3riMzs7MlOv7Rwlsj99ttvdPnyZXk+sLCI2zx9mjRp5Eox8ni9vLzUaOLGwa4JmTZtGt27d4969uwZp4AXF2QEz8jbQYoEYyzmIga5CxcupHnz5sklwf79+1OPHj3Us7SzzVGPPJYfputP31FgSAA9v7KbZrR1oeTq8ciGDh0qK6lz586tRlh8Cbm8mH7Z6Udl3QdRNS2Rq2WebjSyXeYIF+GPdGn+bHr242CqlU6PS7OlHdlZa/6rObeLkBd0ds1QalykBv00tgOVyJCSCvQ7rHkwlJ4dnkhNi6bXPNeeMpfpQPPO+ZH2q0EIvTy3loY1dqV6s+5qgvIQenF2DQ1t5EqNfv2Xdg2rRblTpaBsNSfTqf/2K/lA19b2pKp50pCdvSMVbjaNTvjGfXKFxQ3SF/r27UurVq0iGxsbNRo3KG4bO3Ys9e7dW40kcnJ+l5mMly9fivLly4tmzZrJ38fW/v37RZYsWcT8+fPVCGMsJpCusHbtWpE/f35RsWJFcfDgQfXIJ1haLF26tExpMIR9+/bJz6qvr68aYfEnTDxeUF3YWGQR7n8FqbGohIk3R8eLvou9BJ4d9E9fkTN1FGkMGh83txB21pXEL17vReDb2+LPYRVFavNkosI0L/Hx9EhRPIW1MLPILH5Y6vVfikvgpfGimFNDMd/zpXj/9pbY7l5IWCWrIZbc/5S2EOo9S1RKptIYgj3F+LIphbWZtagw/Y4IDT4vxpbGsaXIVW+0WH/msfC9vVg0SJNStNzsL7/+7YG+omHPzeL66/fC985e0a+orcjufkg+xhLOsmXLRP369dWR4QQFBYlMmTKJq1evqpHEi4NdE4HAtnv37qJWrVoiICBADBgwQDg5OYnFixeLDx90Zft9duPGDdGpUyeZ93vgwAE1yhiLTnRBbkS3b9+WAerKlSvViH6OHDkiHB0dxd9//61GWPwKFd6zKglr8/Siy75ANfZJ0PH+IreFnEzV/DITaTrsEh8ebxMeg38XPipVNsbBroWTKFaxkMhgby3s07uI+h47xD0VW4dcnSBK2FcSs7zD828/iD/bpRLpfjoqA2op4Ij4KYOZcB57RR5+EexCyHUxsaT9p2BXHl8RPxdPJqrOfaiOr2keTyZqLnqqCdffi22tUwsz+e/6/MvSeRieyRJQmTJlxN69e9WRLiHi5ZllYkDjkiJbKlthbZdW5K3cXkza7S0C1DO0GT16tOjTp486Srw4jcHIod3Y/Pnz5ZKptbU1bdy4kWxtbWVKA3Judu3aRZoAlrp06UJLliyhM2fOyOrta9euyebSEyZMoJo1a8p9+zV3cDLnB21KGGNRC09XQG9KpCvMnTuX/vnnH6pevbp6xteQbnDo0CEaMWIEaS4ieu1ehM9x8+bN6ffff6dKlSqpURa/zClTIRdypNd0/OhlivhTtCo/ja7cWUwNUlhQlo476fayuvRy8yyaMbU5ZbH41GHButIs8vZdS43sHKjVNm0tGRTLgtR14yV6+j6Q3j+7QrsmfU/ZrT49ZKY5z9tGzJ4Ie0I3rr8lGzvbz6kTtkWoXDFz8vHR0fbOzJbsIybxmtmR3RdJvRZkofk7a2IJzev70uMnVtRmZ4A8Dv8VfHWCei5LCAEBAfK6XbVqVTWiTRDdXt6MXGvMpYBmi+nUo3f0/pUXbRuQlfa1L0ZVx54kXU0P69SpI+sNEjsOdo0YLqxoabR582Z5AUWbMOyGEq5s2bKyT+7p06dlD07smtK9e3dq2LAhNWvWTDaa9vPzk3mE9+/flzm63JiesahFDnJ//fVX+VmM6U1ivnz55GcSOxOWKVNGNn2XwUQ0Tp48KS882BHpyJEj9N1336lHWEKwqdyNuhWzIq9Fo2jFnYht4czINlNuyprcgtJmy0YO5uaUtdcRCowQIAb905dypm5DOwLe0fomhsmxJHNHyprVih79fYLuhxewiUD6GGhJLkXyqIE4ME9BjumC6d+/zlKAGiJNmO+5baf6PUsInp6e/0126RJybTq16HGAnKftpF9bF6OM9pZkaZeOXL4fT9tWNqJ741rQ4EPaw13EDtevX6fAwChuyhIDzQeLGRkfHx/xv//9T6YcbNq0SY0yxr6l8HSFAgUKyHQFQ6T7bNiwQWhuWEWePHnEoEGD5Of5ypUr4s6dO0JzgRE7d+4UI0eOFCVKlJDPQb4vtwJMPD5eXSi+z2IlbLLXFcPWHhd3XgeIoABf8fDcHNEwrbVwHXNRaPtpRZvGEPZBeE2tKKwtXcSAv9+IrxtJhYq3/wwQBe1KiUlenx/1P9pb5KRUosb00+LFxw/i0REPUSrL/8TWF2GaR8PEO3yNTX7R7+g7zZFm5N3fon8BG5G/71HxTjMQ5n9U9M1rIwoPPSXe4/jtEdE3n61wHXFGcxwmXu/sILLY5xEtfv1b3Pf1E/cPThEjVt2WfzZLGL/99ptsOaZbsDjeN7Mws2sqNvmpoYiCjoqeGUnYN9moBr6GWOP+/fvqKHHiYNeIaO6sxMSJE0W6dOnkBfD9+697ODJmilBIce3aNXHmzBlx/vx58eTJE/VI3CHIXbdunQxyK1So8E1y2k+dOiUmTJgge/E6OzuLXLlyyT+vdu3a8rOOwtEwTbDBEp/gZyfF0kHNRcX8GYWDtYWwsLIXabIWFtXbDBHLz7yWQWVkUQa7oT5iXjXrCHmxll8FzSGXxoqiVprHzGyEU+7iovf+8LzhQHFncz9RPVdyzd8jhchd1V2svPypuCz04VxR1Vq9pmVBMfSUl5hWLvzPsRJlJu0VU8pY/fdnugyeI3rltFDH1qLSLG8RGuYnzs5rJ0o5JRPWDjlE1YE7xYO4tXRlcbRmzRrRpk0bdaRF2BOxpJqVMMs1VJzT9rMKfSjmVbQQZnmGq4Gv4Ub71q1b6ihxMsP/ad6sLInbvXu3bC1SqFAhmjFjhmwLwpgpw/a7WNJHXvqVK1fktrwODg4UEhJCDx8+lLnr5cuXp44dO8r2XMiVjA2kK6B3JdJ70qZNS2PGjOF8dsZYooI0xg0bNujeQVU8paU1slHXu/3p9O3JVDJyC17xmBZXy0HdHw+lsBtj1eCXMmfOLFOv8N/EinN2kzjN3ZTcLGLgwIGyXye28eNA1zhgQwAUCl64cIGuXr0qNx5g0Xv37p3cPKVgwYL06NEjWYz54sUL2fwcBZj4fr58+VLm0daqVYuGDRsmn4uCzJhAkLt+/XqZk4viT+TkokCDA13GWGJToEABef3QySwdFSzsSOLJFfLyU2MRhT6mO3dDKFnxomrgS69fvyZ/f39ZwJ6oyfldluRoLuhiyJAhMmVBczGXy7Qs6cNSe+/evUXhwoVFsmTJ5JI1tmXEf3FcqFAh0atXryTR1zAhaIJOkSNHDtGlS5dY9ZdFW57s2bPL9nxIB9ImPtIVGGPMkNC/28HBQbx580aNfC344lhRyMJGlJ9166sc8reHeohsFjlF76Pa0yLRz7tq1arqKPHimd0kCJXemIl6+vSpbCkyYMAAsrJS/WZYknT37l2qV6+ebEuVOnVqWrlyJWmCNXlHjqp8/BfH2AEHS+aYRaxbt678OvbJX3/9RU2aNJEtvpC+ELHzSHSQxnDp0iX5mUInEs3No3rk65ncOXPm8EwuYyxJwNbAaDumM41Bw7LIYNowsxLdHNqQuq44TY8/hFBowHO6vG04NfxxE+X4eTNNrGyvnv0ltDhEe9JETwW9LAm4cOGCrPJG5fWJEyfUKEvqsLtN+Ay9rlnFyDCTP2PGDPl1S5YsUaOm69y5c3IThaNHj6oR/aCTQdOmTUWLFi2+mslFERhjjCU1mH0tWrSoOtIlSDw6Mlv0qOkiMiazElZ2jqJAtS5i+oGHQtdV6dWrVyJ16tTi+fPnaiTx4gK1JEDzhpJN5pGP+/PPP8uCGnNznpQ3BtOnT5e9WP/44w+ZWxVbN27coO+//546depEgwcPVqOmBf0dNTeANHz4cPrf//6nRvWHWd1SpUrJ/tLbt2+XKydJYuaCMca0QJhXvHhxWdvTunVrNRp3vXr1khvf4BqW2HHElIhF3P0MaQoosOncuTMHukYCO13hJIENAPQJdCF//vxy+X7ZsmW0aNEiNWpasPkJ0noMEegCmq+vXr2aRo0aJauYOdBljCVl6DSDYtyePXvKol1DwEZVO3fupClTpqiRxI1ndhMpVIrjrilNmjQyRxAtxZjxuH37NpUrV07uWocds+LK0K+XVGBWF9tdI4c2b968atQw2rVrR66urnJmlzHGkirEENhB9ccff5S7pmKCxNHRUT0ae+fOnZNdoFDLUK1aNTWauPEUYSKDu65WrVpRmzZt5LLs4cOHOdA1Qt26daORI0caLDDNkycPjR49Wr6uKUFxBJbnDB3oAmZBsLLCGGNJVXigiwB3woQJsgAXBWs3b95Uz4idgwcPykAXRcBJJdAFDnYTCcxQTZo0Sc4kIXDBXtPNmzdXjzJjgr3KMRPr7u6uRgwDOabe3t6yj6ypwFIaOjBEFnJ6COW3MiMzM3OyKzqUTvirByDEk0YVtpJLe3g8rdtu0rare+nSpenjx490//59NcIYY0lHxEAXK2CAzW+walyxYkWaOXOmjD1iArVDuGahPgQzuqgVSUo42P2GcKEMCAiQyeFRwQ5PmL09deqUbHo/btw4srfX3uaDJX2YLURgipYwuoXR22tbaIJbNXLJnIrsU2alUj+Op5037tLvi3eQr3pWRHg9bKaAzUVMBT4vKCaLzLL0FLoRLCjoaG/KdH0mdRi0j16Hfwwti9K4C8/pYO+y1HLNI3q6oj7ZqIciw2vjz2CMsaREW6AbDiuAJ0+elJMFeAwb6yB1MvLGRdh8Z8+ePTLAxeoZ2jCiRWNSmtENx8GuASGPBfl9uGNKnjy57JeKnFsErmXKlJF3U3///bd69ufdzwYNGiR7g6Lym3c/M366ZiM/C6VHWztS8RLudDiLO60/85DevLpF+yfXJP+VnajvynvkF6aeGgleF69vKjBDjuI03ayoUh8Pyr2tC7lveqy5hVAsU1LuvPkpZ650mmfohtfWd7mPMcYSQlSBbrjcuXPLiTbUO6CjAuKQDBkyUJYsWShXrlyUMWNGGeCiYxDS7XAeXLBgAaVMmVK9QtLCBWoGcPToUfLw8JAN6XEHhGAXrZCwDz9g21csLZ84cYJWrFghOyughRi2GUUz+969e/OmECYCS0E4yWCDCCyjaxPms5zqFOxKj3v/S2cmlCQ7Nf7JBzq98Hey7dKeimiZGMbHGTdYuJFKly6dGjVe+B5GdQoL/nsw9bjRlyZkGk2VujyiAf/spG55LDWPhNG9uR1pUfElNKm87s8eVlnQFWXsWO17wjPGWGISk0BXFwS92Fod7RdtbW1l8KvrOpXU8MxuHCDXpW/fvrJvXf/+/enOnTuyH26VKlX+C3QBM7sVKlSQd07Xrl2jqVOnyudjL+kuXbpwoGtCEISiXZjuE0gYXV8xgw4FVqY+PUtECnTBnkp31x7oAl7XlGYj0SYs+pwzc0rfYDat7+FLY92m06WYpahJeG38GYwxltjFJdAFxCJOTk6UI0cOObNrLIEucLCrJ+TjNmrUiB48eCC37EUxWUz732I29+LFi/Iiii1H37x5ox5hxg7vGzu7r0PYz/zI8/QtCnMsSi6O+p1o8PoxLTpI6nBSxg1E9Oyp5LD1NCHtAuow5gRFrFeLCm4asKTHGGOJWVwDXWPHwa4ekKT9ww8/UNq0aWXrI+TmxhZme7GpAFIe0OwZQRAzfrjBwRKRTiKYggIFmdnYkI2eN9WmNBuJArKzZ8+qo2hY5qQOyxZR+V1daNDeVxST/C28trYCOMYYSyw40I0eB7t6mDFjhszDxS5LUVfURw+vhaI09NRlxg/5UOfPn5edN7QyS0P5nB1JPPGiW+/UWCxhNhIznqbgu+++k0UWMWWWtjb9sqYtXevfkzY90lHlp1y9elXemKAVIGOMJUao/eFAN3oc7MYS8nKRc7ty5co4B7rh0Irqt99+0x0AsSTt4cOHspk3KlqHDh1KNjY2UaS8WFJpt87kHLyH5iy7QcFq9LOPdOvQUXoQog4jQU9YS0tLypw5sxoxbtgiGNst+/j4qJGIgunFXW/yun2b3oaqIQ27ooNozfAwWjj3jJbv72fokGJqm3QwxpIOBLqzZs3iQDcGONiNJTRh7t69u0FnzpAOgd20EEQz44D+yuvWraOaNWtSsWLFZDC2Zs0aWaDYoEEDOn36tHrm16xcPWj9hFJ0bUg1ajBqE51+8IYCQ0Lo/dNLtG3qRDqevjRlQ0MBLf7880+qXLmyOjJ+aPHXoUMHLd0SAmln23SUxW0zHZ9aiRzLTKTr/wW8FpSt1RJa1i0v6Ur2QEszpChxsMsYS4w40I0ltB5jMfP27VuROnVq8fjxYzWiQ6ifuLr5Z9GhqrNwSmknUmQpKVqO2yG87mwSi7a/Vk/6kr+/v9AEveLBgwdqhCVFx44dE507dxZp0qQRdevWFRs3bhQfP35Uj35y9OhRUaBAAREWFqZGtAkQ3rsnCbeqBUSG5NbCwtZRuNTrJ1Zfeace187Z2VkcOXJEHZkGfC41N59iz549aiSGgt+JdwHq9xGEhoaKChUqCM2FRI0wxljiMWfOHJErVy5x//59NcKiwzO7sYAdRtA/Fy3DdAp9RFs7FqcS7ocpi/t6OvPwDb26tZ8m1/SnlZ360sp7fp8b20eQLFkyqlevHh04cECNsKQiYpoCWsmhEfeVK1fkLGuLFi1k2kJEmHlFgSJSV3SzpRz1PGj54ev09F0ghQQ8pyu7Z1Bbl+Tq8a9pAmtZmIY8VlOCNn/oX+3m5iY7o8SYZXJKbqt+r2jOidSzZ0/ZYxL9rxljLDHhGV39cLAbC7q2Jv0sjHxWuVH7tbbUf9cuGt/UlZwcrMnSNjXlKNuKJu3eRu1SvdVZBY69+Hlr0qQhqjSFwYMHR31DpLFo0SLq16+f3IjEEJ49eya3Cm7fvr0aMS3obT1p0iSqVKmS3p8hFKMhRcnT01Pe1GrPA2YsacP7fNu2bfI8hW1f0ZcbN+rFixendu3aycp+1KawxIcDXf1xsBsLCGSKFCmijrQIu04rZhyiwMp9qGcJLb1U7UtT9/ZFSFdZW+HChWUFOEu8jh8/LmdvsaUigl38/tGjR3IbRWwJHVMlS5aUwWnjxo3p7du3alQ/7969k9sEo+8zih2bNm1qcoEaPjeYXUfQi5zo0aNHy92AYgp9r3GziZsG5Opi1zTcxKAALsatzRhLxHCeGDVqlAyS5s2bJ7d9RcHs1q1bZUcTtMLE5wefpXLlysmt7HG+Y3H38uVLWrVqlVw1wg150aJF5fkFPfeHDRtGO3bsiLY3Oge6cfQpm4HFhOYiKv744w91pMXrtaKBNQmnfsdFsBqKDc1FVWjurtURSyyQR/3zzz+LvHnzioIFC4opU6ZEn7cdQ5qTnyhbtqx4/vy5GokdfJ3mwiQ0gbM8Rn7wmDFjRLp06cT06dOFJuCT48ZME5wKR0dHsXbtWnmMn43mJkI4OTnJ78WtW7fkeGTIk9+9e7eoV6+eSJ8+vdBcjNQjnyAXeMaMGSJ79uxCc4ES27dvl/m8jCU1hw4dknntHTp0ENevX1ejugUEBIhly5YJzU296NOnj/jw4YN6hMUGvtft27eXtT4tWrSQ5xNNsCo8PT3F+fPnheYmQ56jqlevLjJkyCCGDx8uXr/+uq6Hc3TjjoPdWMAFdNu2beroa2HPlouaVmYip8dZEaLGYuPff/8VZcqUUUcsIeHkjuCpRo0asnCwe/fu8ufzLYwcOVJkypRJbN68WY3EzNatW+XX4QQZGQK8WrVqiSJFiogTJ06oUeOCwHPIkCHyIo4LR2RXr14VPXr0ENmyZZMFg1WqVBENGzaUhYOFChUSyZIlExUrVhQrVqyQF3ddQkJCZKFh6dKl5Q3PvHnzxPv379WjjCVuS5YsEZkzZxZ79+5VIzGHwOvHH38UpUqVEm/evFGjLDo4N2FSBDfhkydPFq9evVKP6Hbjxg3RtWtXeYPx559/qlEOdA2Fg91YwOxZlBXawcdEHycSto03CF81FBu4oDZp0kQdsYQQk24K38LJkyeFi4uLKFasmFi+fLnOkyPGEZxhBQCzzNEFsr/99pu80HXp0iVGJ9ykAv8WBPO4GXn58qUa1e3Zs2dydmvnzp1yNhfBcVBQkHo05v755x/5GcVFbNiwYQab4WfsW8C5BDd7t2/fViP6wewubvbevYu6GwwT8ryCiTHcXN+7d0+NxhxmfrGaNG3aNHH58mWRO3duDnQNgIPdWMCJo3Xr1upImyDhOcpZWNiUE9O8tFxIA26Kg0fu60xxGDhwoJg4caI6YvHlW6YpxAZakaF9FmYfU6ZMKXLmzCkDbgRX+C/u7jGOx3HnH3Xrss/8/PxEr169RMaMGWWgnNRdvHhRfi/wecGsa0JA8IAUFNwUYZkSfyfGEhMESrgp05XGE1tIgcBEANMN5yMEuvilz810OB8fH5EnTx6Z9sCrSIZhhv9T6bssGtiGFQn848aNI82HXo1GEnCRptT6jobfLUPDZo6nzrVcySl5CL28tp9Wb/ajukM7UGEttWuAhHVU06NwCS2kTNndu3flzliorEdlMJL30cJLE+TIjhj4OWjueNWzYw/dFFCYgZ3wLly4IFuEYXMCFCklBvhY4v0W+d+eP39+MjMzU8+KHWxTjG4DdnZ2sqDO2dlZPZJ0bNiwgfr06SOLNVq2bKlGE46vr6/srIHd1lDVPmDAAKpTp4561LCwOx6KU/CZwKYXHz9+lOcJbHCDzwRazuH9wRgKLHEuc3d3p44dO6rRuPH395cF2jh3oLCKfQ1FsocPH6a9e/eSlZWVGtUPCp/xud68eTOVL19ejTK9Idhl0cNyRO/evYWlpaVMJtcEIOoRLQK8xe5JbqJqgQwiubWFsHV0EfX6rRZR7Qdw/PhxObP4v//9Tza017dgKanbv3+/0JxIZcFQ27ZtxezZs8W+ffvkRgx4DPlLGEcyP5axY5uHllBpCokFcsmQc4oZH+S7JpVZA8yY9O/fXy7pJcZZVMzirF69WhQtWlSmoyxdutRg7ytsEoLZfBQdtmrVSsycOVO+78M/E/h5YtYNBXlVq1aVqRrMtCGfH4WrhvatXtcYXLp0SZ5XHz58qEbiDkWxmOHlAsG442A3GqiaxAUGRUoIDhYvXiyT9Q29fFq/fn0Z2GFpetSoUXIJGx8eU4FCCHyf8+XLJ6viowsU8DiCi/z588sbhKjyURNLmkJi8vTpU5mSg+KuxB4cvXjxQt5g4iZIW6VyYoPcYHyekTYyduxY+ffXB7pBdOrUSZ4LEDxHd8FDwI0cbRTfYRkVecrMNOGmB++FKOmx0ydulnHOOHPmjBph4dBt4Vvsuogb3UWLFqkjpi8OdnXABQsXVxT3TJ06VeY9AoLRatWqyQpLQ0Fwh6r5iLPFGzZskHeJpjBLc/fuXXkC1afFDZ7ft29fmdB/584dNfp1NwVU5Z86dUo9ysLhfY4bhkaNGiXKrapRSIb3hoeHR5Jr+3Xt2jVZGIi2Q6iyjknLp3DI2cONH74utkVBOI8MHTpUnrvwd2CmBTf+yO2PMmc0xEdsaZ9b2GaoJkZs9hSP3gaK4IDXwvvkOuFRxUmUm+UtdH3aRo8eLT+P7DN8XrFaiBvUqIT6XRWbf+4gqjo7iZR2KUSWki3FuB1e4s6mRULH/YU8R+MGlsUNB7sR4GK6adMmUbJkSTkDiII0bekKqIzEMvuBAwfUiP7QWxdBLWaQIzt9+rS8YGEm0lh5e3vLQHXBggVqRD+480XVMQJn9F011TQFfeA9Pn78eLlMjhu7xNKbd82aNfKzgZ9nUoaUJPTSROoNZnxx8YrKo0eP5CrEL7/8okb0g5s9pDbEJshmSR/SvjAho1uoeLispkhu4SKGndEyufD+lFiw8qLO9pkoosVKC/ts7ty5omPHjupIuxCfLaJ9bluRodoIsdnzkXgbGCwCXnuLk+s8RBWncmKWt+6beazu8Oc4bjjY1UCPzfnz58t8QOTL7tixI9pKd+R+4kKsT+/CcAhmcQHEn6cL7hjRZgoV31HmCSdBSAVBSgg2PzAELCHhRgU5U9wSKvYwM44bBMwioMVWQkGwjfx4BHxXrlxRo0kfbrqQjuDs7CxbzCGYjzz7hvMOWhYhODYEbAyAP49v+EwHJkcGDBigjrQIvSLGuZgLq6qLxeOYNXT5AtJjsFrGPmvXrp38bOsU+lAsq5lcWLgME9rvLxaIlRd1p0YiVQ9pe0x/Jh3sYrln3LhxMuD8/vvvZQAbG3g+mvoPGjQoVhcTBHloMYZgOcod2RQUETVr1szoCtcmTJggi8wMqU6dOvJnyvSHmVQ0NsdMRUx62AJm6JF6g4tsmzZt5MkZS/jIQ0cv4Ji24cH7+7vvvpO7mvn66tOtOvFDQIvWcUixwcoNUqLC/60owMTn3JApG82bN5fnKGYasMkMahR0iuNOn5ikQaE2+wxpiNo2tgkXemWccDG3ElUXPxZ63F/IVZ5+/fqpI6YPc9WUwaQ8ePCA+vbtS3nz5qV79+7JFlfYm1pzkVHPiBk8/9KlS/I10PJn6tSp9Pr1a/Xo19C6BXuSFypUSLYQOnfunNzHPzr29va0adMmqlatGpUpU4YuX76sHkm6sE/79OnT5X7shrR48WK5f/jbt2/VCIstzY0VXbt2jVKkSEEuLi60bNky3BSrRz/D2Pbt2+X7smzZsqQJkildunSyLVHDhg2pRIkSdP36dbkfPNpjoWXfixcv1Fd/7ezZs1SyZEmqXLkyaW4CKVWqVOoR44LWcXXr1qUDBw6QJuiV3yO00cPe+ZoghZYuXUrm5oY7NeOcg9fU3EioEWbM8P7S3FCpo6+J4CAKFGaynaE+TQw1N7CytdmNGzfUCPPz86M0adKoo6/5eZ6mW2GOVNTFUa/vOV4bfwaLAxnymgh0N8CsE5ZgMNOB3DhDQe4tUg2SJ08uWw/h9/gzBg8eLFtdoSWRJmiVsyxoGaSv9evXx3hGODHDDFbLli3VkS6hwu/qZvFzh6rC2SmlsEuRRZRsOU7s8LojNi3aLnTV5WNW8VtUxZqiCxcuyC2sMduIJvXhkLeOvEBNQCurvqObuUU6Qrdu3eQqCt7DkWGzC7yvo9qO25gh7QYN5DGjHTX9PhModENeNjN+OPdhi1+d4rjTJz77KIDD5zWutRbGAkW0WN3SLkw8W15TWJnlFB5n9evihBQJdGZh+jOJYPfw4cNyeRvFGlgy/JZ7fOOij+UMvDlR7IP8qYULF8pOAIbKm8NrhXeJSKrKly8fTYFfiPDZ0l7kts0gqo3YLDwfvRWBwQHitfdJsc6jinAqN0voyudHARACNGYYWFLHexhFmdi1DAUquNDhsxTb5XbcFOJmECkOWM7H5wXbcKMjhKkXYKD7C/qY6qb/ZwJLz8jdZcYNnyk3NzdhbW0dRZu+uO30uXnzZtkOy8vLS97s4vem2hc+HOpqour2E3ysj3AiW9F4g36pWUh75FSkuDHaYBcXYeQeYj/vAgUKyODTmAq8wgvX0Ew+qf27UICULFmyKFsqhT5cJmomtxAuw86Ir/P534tTC1YKXfn8/v7+chY9pnmiLGZQmIIca3Nzc3nB0xd+PsjLRU4wcuXxK7y1nylDB5GoeuPG5TMRk88cS9rws0V/5bJly8rzX5RtsD54iskVUwoLp1pi5MZT4r7vR817xF88ubhVTBm5QlyKogMkWkSGrxLgHIs2d5hIQh66qcLqLTZ30SnIU4xythA25aYJ7fcXB8WR+7ozqH/44Yfo+yazKCX6YBcfWMzUYYYU+/ujXyp2UlqyZIls1xV5cwd0VsDSCnYdwU4vWBbF3a4xSqqFa1gOxw2IbqHiyjgXYW5VVSzWp1xYA7OH2tq5Mf0h7Qezu4ZocI73Lj6fuFAa6+czNrBDI4oCdYv7ZwJBUEJ22WDfzu3bt+U5D+kqmPzABgdIFYuSHjt9on85WhSixWNESM1DC8mePXvKa7CpQTyC9LmofPCcLCqmtBBOtUaKjafuC9+PwSLY/4m4uHWKGLnikpYb2E8wcYdC+MjfcxY7ibZADcVb7dq1o6xZs9Lo0aPp6dOnpAlgqXDhwqT5wZPmpE2aN5csfMF+1C9fviTNnQ/lzJmTdu/eTStWrKATJ06Q5k5XJuwbo6RauObr60uOjo7qSBs/8jx9i8Ici5KLo34/OxRK4c9hhtOlSxf66aefSHNBVSP6w3t33bp1skCRC10+fSbwntWNPxNMu/3791P58uVlIajmRpSsra2pV69epAl2KSgoSD1LC9scVM9jOR2+/pTeBYZQwPMrtHtGW3JJrh7XAtdV/Fm4zkaEotKLFy/Sq1evZGEqfm9KfvjhB9q7d6+MQ3Sxcx1CBzx3Uq/Mx2j09y6UIZkDOZXpRCv969PgDoXJTj0vMhTrIs6J/D1nsaSC3kQDM7lYEtAEubLdRnTbg2L2Ds/HjBParRhTX87YSEqFa3///beoVKmSOtIi7JlYXtNKmOX0EHrm88tl8r/++ksdsbjC9xKz8YbecAJFWVidMHUoBEQRq04G+Ew0aNDAJHZkNCW4RmLWD+fUyLArItqQGQp2WMQ1Jrpt7LGZCZ6Hv5uprNognQMF14bqjx2R5kZCa1Evi51ENbN7+/Zt0pzw5Uzs1atXaeDAgZQ6dWr1qHaurq5ydgh3VRs3bqTJkyfLtiimBrPcu3btou7du5PmJKNGEyf8TKNqQUVmaSifsyOJJ150650aiyXcYUf33mExh1miPn36kKWlpRoxDMwWHz58mHx8fNSIacJ7NapZIf5MsIgCAgKodevWcjXz9OnTVKlSJfXIZ5jlRcu5gwcPqhH9ffz4kdq0aUP9+vWTq6tRwd/rzJkzpLmxopo1a9KjR4/UI8ZHE0PJ1VVnZ2dycHCQbf7QttFQENu8f/9ezqazOPoU8yY85BxhNhe5L/pCtwPsAIU7rMi5vKYCu4dhdybkToXTBJayeADdG7CvOTZdwPcZs0nxvTUs7vRRGY4CiqiKZYI8RwlnCxtRbpqX+DqfP0DcPHhE6MrnRwEUinG4QM0wUDymOZHL72uUQv3E1c0/iw5VnYVTSjuRIktJ0XLcDuF1Z5NYpGvjdw3k4SflziKGEl2BWlw+E1ygZjwww4riZLTRjC4/FjnaWPWMbovqqODP0AStQhPExqr7Cp6LjYPQbjCpb/mtDVa7sAModu1ExydAPQOuv1EWB8YQalswQ45Ze/y3e/fu4unTp+pRFluJItjFhwlLpGhvFFcIeLEzkSGXb5IaFP9gdzcsJ6EoJVWqVHIvcxT2IdgdMWKE7AOMVkTol4jWT5q7UfXVhofdoTZu3Cg7R2TMmFG2mcKOM1G3HvsgPCdXFCktnEStkRvFqfu+4qPmgu3/5KLYOmWkWBFFuTBOPNx6zHBwoaxYsaI60iHER2xpn1vYZqgmRmz2FI/eBorggNfC++Q64VHFSZSb5S10XSaxRNe0aVN1ZLqibz2m/2fizJkz3HrMCCDwQdrCtGnT1Ej08DUIeNG+KraTQEgTxLka2+HGJtCNCO+9fPnyyfO/IYLAhIY0DvTDzp07t+yQEDlVA9dTFN/G5d+KdEz8nMM7MCCdE7tTYo+AsWPHRj/xwL6SKIJdBGFRNsGOJdz94G4yqr53xuz48eMib968MuhHjl5UJyk0sx81apT8fmE2GIFyXOHDj17DyKFGp4gUKVLIfEG0ZgmvKMU2stFvKhEgvHdPEm5VC4gMya2Fha2jcKnXT6yOqlxYA1WxM2fOVEcsrjDr2rdvX3WkTah4uKymSG7hIoZp3/hdLFh5Uei6zN68eVM2ZTd1y5cvj8GmEvp9JlClz9toJ23z58+X5+n9+/erkZjDbDBmZzHruG7dumhXvdDz2t3dXQbJq1atUqP6Q3CG3toIEE+ePKlGkxZ8DzFJhJ8BOl1E9T3EtbRgwYJyFTO28P3GTK62VmPYuALXN7R6W7x4scmuYOsjwYNd/PDQyuTVq1dqxDBWr14tE7tNDe7ecUcY252oMPvatm1bGSQjpSS2tM3eIkDCiVnbZhpYGk+dOrXcjcdQcCeNYBqv+y03DjE1Q4YMkRtI6BR6RYxzMRdWVRcLfbpi4eeGnQdNHVa4cJEz9OYaSGPCZ4KXQJMmtBJDoFioUCG9zs0Rbd++Xe58iIANvVsnTZok1qxZIzZs2CCDJwS4WJrHOXzkyJHiyZMn6isNA9clvDYKuZJKoIZrGzZ0wKwqVkVjOmOLYBXfZ6QfxGTlFCudWN3BTHp0bTMxW16lShXZbm7Xrl1qlEXFDP+n0ncTxODBg2WSt6GLqjQfpP/akGnePGrUuGlOILR582Y6dOgQaT5kajR2NCc82coNRUPYr18X/Mw0H0jas2eP/HXp0iXZfgZ7/uNXTNqk4M9BCzkUFxoCiqiGDx9OP/74o0zsZ4ahCXZl2yrNCV+NROK7jhpmbEPn3Y/T/RnlKbYlbCjASJ8+vfyvqcN7+Pfff6ejR4+Sublh6odbtGhB2bNnT/SFq+xraLnZrFkz+flYvXo1aW4K1SNxc//+fTp58iSdPXtW/hko6k6WLBlpAmrSBLvyF1qYfQuaAJrc3NxIEzTS2rVrKVeuXOqRxEVzk0G//vorTZ06lZo0aSKvr2h7GhsoxEbRGq6r2bJlky1CixcvLgtF8T3H9wLFfMeOHZPff7SMa9u2bYy/9yhKx/kZ13t8vtH2LS7wM0Hb17t378p/v42NjYwD8LoowEvSEOwmJCyTRH+3qt9+8Mht6devnzoyblj6wLKJITaXwB0+NuWInNKAO9xNmzbJ2VvMHofP3u7bt0+vrZBRNINZBEOlHCA1QnPilH835E3xrlyGgd2SPDw81NHXwp4tFzWtzEROj7M6UxWigqJKzPawTylAmLExVMoBUiOQq6vP55MlLCyBo2gb1zFja+GFf8+sWbPkSsaKFSvUaNRwvUBR9cqVK+XX4nyPuhTMmuqbT6wNXgvXU01wKnekM8RKC2bnjxw5ItuxobAQu0bitTFjj6K2uGyAhBlyXLOR2tCqVSu5QU1sYEUJO8xi62essCH1sFOnTvIail0usbU/iltxrcbPKqmeSxI02MWSc9S7BoH++8HjzYUflLFDsICbhosXL6qRuENKA5a0kA6AiloUKCH3tn79+mLu3LkG280Fr4Odd+JanIjuEjg53blzRwblOIngQoFlOxY3yPvG8ppOwcdEHycSto03CH12ft+xY4eoU6eOOmLYqQ43m7EpQtIGhX+4AH7L4lP2bYTnbRr7+QsdBwoXLiyaN2+us6c+cnwRxCEQw40bgkVsWdy7d29Z94E8YBRhI13g6tWr6qv0s2fPHplGgLgBRd5JCfKikR6CdIuBAwfK62B0UBCLySHU1GDSSldqCW400NEJNQWZM2dOkv26EzTYxSwh7m6iEpf94NFmB3ckxp7EjUpZvMkNCR8UzLYhNygus7cxgQAVBUo4gWE7ytjAXSlm7xEwR14hwBaWmH1GbhoK8Zh+kLeHtli6P0dBwnOUs7CwKSemad/4XRw8cl/oanKHLYORH8g+8/Hxkfnz3bp1i3W7MMwiDRs2TAa6cb34s/iFzxjOt/jZm8rPDtcV/JsxORGxRRpu+tBKFMEsVv+i2mAK53fMgOM9jyKy2NZsnD17VuYyoytUbOtdEhucr3HewM3S9OnT5fkgMgSvmLVFl4wTJ06o0ZhBOzv8TFD0mpRiqwQNdjFDiNlD3eK+HzxaaxlzsRL6cqL4JLqd5vSBNmXogRofUKCIKlN8+FBcqO0DGhEeR2EFgll08tBV4IgTKbpN4IO/YMECo1sOjC9Y2oryIvDBU0yumFJYONUSIzeeEvd9P2pOqP7iycWtYsrIFUJXVyycLHGRi8synrFCGg4uSDlz5pTLjNHdCOIChqIYzJRh9ywuSEtacA5Di0isosRkVs7YoJgZs4aDBw+Ws4hYrUQ6D97XMYXZTcQUWOVDABsdTLRgdhhBMtIJjGliDCs6DRs2lOcPrPKEX/vw/cSulZjN1bf7Er7PeJ/imp1UvmcJGuyifUevXr3UkTavxdoG1oKc+onjeu59gBkpQ3d6SEyw3Srya6IT6ndVbP65g6jq7CRS2qUQWUq2FON2eIk7mxYJXf3+cYeIm4X43Jxh7969olatWrKKFakUeI/gJIhekfjvr7/+Kscx64xWOlh2ignMkmBpCukYvKwbewiisAVzlAK8xe5JbqJqgQwiubWFsHV0EfX6rRZRdcXC6k6UW0cz2bwe6UO4YcNyLma5sNKCzwQquNHSD3n0CBTwM+LUnaQHvVtRb4BAz5D5p0nNy5cv5RI8At24tCjDjTmuIboCXtS2IPbAkj9qEgzRcjOxQjonNr5Azi1+j1xcnE+im1CKDlZVca1OKnVRCRrsongCS/A6xXE/eNxx2NraGnVxBu7Qots3O8Rni2if21ZkqDZCbPZ8JN4GBouA197i5DoPUcWpnJilK+lZA+1uzp07p47iz61bt8SyZctkHhb6BSMgwn+xPINZLjweW7izRa9KBA2YtY7rh92UYDYAM4YoCDEUrLhgBubgwYNqhEUFbRpRIIKLFW708JnATGDnzp3lrJShW5Yxw8J16N9//5XnaxRZ4b/oBb9lyxZ5ToruPG4KsMKD74U+/WkjQy0AJkUiprAhqEVwiyAXwa4hCrqTAlz70F4O3w87OztZ6GcIWFHGTTaC6MQuQYNd3HXhAqpbsDjWx0mQbWOxQY9VHRRsIQfHmCHXNcrAL/ShWFbz/+3dC3zN9f8H8PfMbK5DhuYShbBC7qI0Jf4q0QXJbW4lya1m5FLuVEoXQhhFuUeU3ELEUA0j19zvxBgzu3z+5/Xp4xfbOWfb2WFn57yej0cPvp9zrJy27/f9/XzflzzKO2iAst7vf6IKt5X0bBESEqIvpO4E+ZDIFUf3CuQfUdpgUAh2XJxVnIjxo3crTYYoM+CpGIIM9HzHiHQMdUDaFfJK8WuVKlWUr6+vHv+LPuXpeWTvbvBZVa5c2SlDLG7CpgZ2MQHXMaQrIG0ho/2KsyI8MUCuLTaM8CTBWX744Qd9LXX1FMFMDXbxzY0TgL0CjIzMg0eFPh55uzOcKO3tXCdGDVVB2XxU8OSTypFvRZwsnF385ipQiYpuIPjh5xCKtEHeM26wsMuYETdHaiL3i8gdIdUEhbMofMK5Bo99rcE6dnfRcg4/W576pAOtxG4Gps6CGAPdFRCQoWgTBdeeCp9BzZo1zZFz4SYF3++uLFODXWjevHkqbaccnweP/EycRNyZt7e33QTxf755VuWQQNXbwaRnPPLB1Bh3hSIg7C7iUcz8+fPNKtmDHFEUlTlyUUb+fIsWLXSgyz7I5I6wg4ZxsQh0b+0ukBaoS0BqDzrTeFLuLnYF0W4vvZ0B0gKpV0j78XTo7Zv6rnmCOr91qurbrLoqmd9P5ch5jyr7eHs1atkhZf1W7V/YWERKpSvL9GAXJwOMvLO/BZ7+efB45IoLsjtVV1qD3re2K3eT1JlpDZWPV2kV5kjSswVGxWIEsbtDT0X0cEQVO/oWpwb5vshlRkEdiuQ2btyY5jGS7gB38fj5Qj/jtORP32xcjpuKPn362NzlIsrKEKDiaSLqCxy9mcNTpuDgYJ1C5ikB75o1a3SKR6oSo9Wu+cNVh+CKKtA/p8pXvLpqOXSx2nNwrppko9Ia52oUq2X0aVRWhzxl+x1a4tT+qc1UMf9H1Bvf/KFOXY1X8dfOqajFA9UThfKr2u/9pmxd4TD239UHA2V6sAtoa4Sqe2dBgIudIxQjuTv8PdFP1pb4DT1VoPipZo4kPVugvUhWbCDtCJwU0asRBRLo+pD8QoN0G7TLq1Wrlu7fjMdjqEbFQASsoek5cpewE468YHeHizIeDSKPF58DborQHQCFUgiAkZOPAPdmz0e0usFNAZG76tu3ry4aTG+/8ORQSIW0Bmw2eAI8QUz175pwXC1o/4DyK9JADZwfqU5cjlPxsf+oQ5tmqbAnAlWdTw4pW7cGGFoxa9Ysc+R50GINmxP2xO8aqR7JkVs1nHIsxed4cWl7VTRbcfX6KtsbOrgOpGWjKLO4RLCLC2OhQoWc1kR7+PDhOk/K1ROmnQFTZDCC0KYbkWpwRW/lW+dDZb3f/yq11kbSMz4/3A2iBZknQbCGSnfcSGDCD4JeNOdGGzucNPH43trFDDdZ2O1FlS/ei/SI9A4EyIqQMz5v3jx9oUfrK/Q+xiNJFN/cbB+Hky2RO8OmA55cOKvn+blz5/R0K0+4QcQjdvtpZInq2NSGKo93kBpgvdJaTQzfbnNc+ZgxY/TgCk+FbgkokrQtXm3sVUx55XxRzbX2QOLGOvVmUVG5ms8xCylhwycj7eLuNJcIdgF5NSgW2rt3r1lxDHZzkeTvyncYzoTHyQgq7LkWOVrV8/dWgU8PUnMijqiL1+NVfMwptX3hGDVo+g4rk+n+hcfzqBL2RAj0MW8cwT7uiBH8pqeCF7ueGAiA3pnOaKNDRK4L5ws81XH2UzDUnNjvWOQecJ2xOwQiMUoNDcqmfIInK0fmS6GfNzYqPBU2aPDEwaakU2pKAx/ldX9/9bu1O4bEY+qLet7Kq8y7ZiEl1Eih97eryiYu4tVXX5Xhw4dLcHCwrFixwqymXXx8vAwcOFDGjh0ra9asEUvgbF5xbw0bNpRr167Jhg0bzEpKOSv3k5WRS6RHsQ0ypGmQFMmdVwJrdZLwmGcktMPDktO8L7nPPvtMevToYY48i5eXlzz33HNSoEABuffee2X58uXywAMPmFdT5+/vL1OnTpUPP/xQnn32WYmIiDCvEJG7wTXLz89PnzOc6YUXXtC/4prmzhISEsTHx8ccWREdKVv2J0lAlSAJ8DJr6YCvjRjBU+XMmVOuXr1qjuxISpIk89vbeGWT7Nkt4WI2b7OQEr4+/j2uymWCXWjfvr3MnDlTunbtKl26dJFDhw6ZV2yzBOz6RFOjRg3ZuXOnbN68WUqXLm1edX8Iyvr37y99+vTRJwxb/Eo1kbBpa+Sv01ckLiFWzkYtk3FtgySPeT25n376Sf766y9p1aqVWfEssbGx8tRTT0nHjh11oJorVy7zSvo0b95cZsyYIU2bNpUDBw6YVSJyJ5MnT5Y333zTHNmSJJd3L5ARIQ0kqFh+yeVfQmq0GiZL9v4t8yYvlovmXcl1795dJk2aZI7cU2rBmIq/IXHKS3x9fcWBWFd/bUfP4e6gfPny+nqOeMkqr0JS4eEAUaeiZE+0WbtV4kk5+HeC5K5axSzcLjExUfbt2ycPPvigWXE9LhXswpNPPik7duyQe+65R2rWrKl3xcaPHy+bNm2SU6dOyfnz5+XIkSOydOlSGTJkiFSoUEH69esnYWFhsnjxYilSpIj5Sp6jQ4cOUqhQIRkxYoRZyZgLFy7oG45p06bp3QpPNGDAAKlUqZK+kcioxo0by7vvvqtv5pIsd85E5F5+/fVX/XNuW6KcWNhRqlbrLmuKd5fZW4/JpQv7ZcXohhIT3kl6hR+WaBunBnxdfH13VrFiRb1ZZYtXwXJSMUDJqT375YpZSw/EFIgVPFXBggV1TLVnzx6zklx2qdXxNXkoYZVM/PqAJN82u7J+mnx3opR07NbIrNxu165dUrJkScmbN69ZcUE6mcFFoQjo66+/1oU+mO2Maj+MukMOJboEoOqdE7D+deLECZ2rnNEOFOiDihYwgwYNMiueB6MUMWkHn4WzIKcP1dX2e0oTUVaDllY4X9iTeGyqapjHWwUN2GqlRuKqipgYruwMstTdTNy5wwuuW506dTJH1txQkYMrKm/fOupD65XWatXaI8pWN3m0ckObSE+GQT7oNmRbrNr56VOqUM7yKmRahDpxNV4lXDujdiwcoOoH3KMeH/W7sjUCCF15XL0A0KWD3eTQyy219hmeDGNcEfDiGxqdAdILXQjQTis0NNSseKYOHTro6l1nQ7U2iliIyH2gKAcFrLYlqqihQSqbT7Ca7Eh1lUXt2rVdutI9o9CtBZtZdvtvX4tUo+v5K+/Ap9WgORHqyMXrKj4+Rp3avlCNGTRd2ZovhY0gdMfxpD7o1kRFRembMkyVs+2GOrF2vOrWMEgVze2jfHIGqPINuqiPVh5TceYdyaEbD/7f7du3z6y4JpdLYyDHIVd548aN8ttvv8mjjz6qUz/S4sqVK2IJ7uTxxx/X+WH4vae6dOmSTofp3LmzWbEh6bLsXjBCQhoESbH8ucS/RA1pNWyJ7P17nkxebD37Dp8vCiXWrl1rVogoq0Phk93iKomWyC37JSmgigQ5Ul1lkSNHDrEEKebI/dx///1SvXp1+fbbb82KFTkrS7+VkbKkRzHZMKSpBBXJLXkDa0mn8Bh5JrSDPGyjNmrixInSunVr137EfhcEBQXJI488Ih988IFZscZHAuu/JRNWRMmpmBty49pZ+Wv1ZOnzVHHJYd6R3MiRI6VevXpStmxZs+KaGOy6Gcudm+4c8Nprr0m7du30CeSTTz7RAfDNAgDLTY4cPXpUFixYoIPbUqVKyR9//KELsZCr68nwGeCEgBwnmxJPyMKOVaVa9zVSvPts2XrsklzYv0JGN4yR8E69JPxwtPWKVgvkoK9bt84cEVFWh7oGdMSxScXLjTglXr6+4utYrKu/vitXujtDaGiovP/++3L58mWzYoVfKWkSNk3W/HVarsQlSOzZKFk2rq0E2ai0Rn0Pivt69uxpVjwbAn/EA9u3bzcrGbNt2zb9+X7++edmxXUx2HVT6CKA6shhw4bpX/HDjiK2bNmyibe3t9SuXVt3CUCLNiTvz5kzx6O6WNiydetW3dnDtiQ5PiNE2n/jJ32WLpVhL1aWwLw5JLtfASlVu7WMWrZI2uW/LDZqXvXNB/4dROQeUIFuv9K9oJSriEr3PbLfgeoqFLXu3btXypUrZ1bcU/369XUxnrMCU3xuISEh8vbbb0uZMmXMqmcrUaKEbimKFnn79+83q47B93yzZs1kwoQJuj2ny9PJDFkEc3YzDs27LcGWOaLkMI9+6tSp5siKDDY3x5RA5u0SuZfSpUvbHYh0I3Kwqujtq+p8uEelzJiMVftWrVU2BlnqXEtLoGuO3BsmTqJuJKMF0ph6iemNGGOefOw7KX2NwxAvR/PAN2zYoKcFYhhYVsGdXQ+DvrxkG/Li0MvRpgw2N8cjz7i4OHNERO7AElTJvHnzzFFKPpXDZPaIGrK7XwN5dvBc2XL0ksQlJMjV0ztk0diRsrFwTSmZ3bw5GXxdDA/yBHny5JHVq1fL999/L7169XLoXBkdHS2vvPKKblWKr4OnmXQ7PPlF6gH6wKNtK2pV0uLixYt6p7xFixY6fQHDwLIKfhcQ3QKB7vXr181RShltbo5hFXaDaSLKclD78OWXX9oZ7JNTKvdbKZFLekixDUOkaVARyZ03UGp1CpeYZ0Klg43qKhS/YWAFvr6nQLodiniPHz8u1apVk/Xr15tX7FNK6eLihx9+WPeUXbJkidvnOWfE888/r1MYT58+rQsEu3XrJj/++KOcO3fOvONfZ86c0XMNUM+DKaIIePHnnnnmGfOOrIHBLtEtkNtlu/F2xpubI8/J1atWiSh9EGCh2h3FP7b5SakmYTJtzV9y+kqcJMSelahl46StreoqC4wbr1q1qscNRECB8Pz58/UwHkxTxWeAncjff/9dvvrqK71rC9g8QPH12LFjde40alQwDAl5pAx0UxcQECDh4eGye/dunc+L7198jvj8UeyOXzHwA3m+CIhxbcQYfNxMZDVeyGUwv3d56CCAFhf4lRyDAinsQOBXSmnVqlX6hGm7Y0K8bB9SRaqN8Zcx29dJ3weTtRy6vl9WR/hK/folxdpTSUz7QwucgQMHmhUicgeHDx/Wxa04dyBAyChMFMNEUQR4CEQ8FUKUFStWyNy5c2XLli0SFRUl/v7+OiUPaQ64ycC01TZt2kidOnXMnyJH4fPG7i0+WzyFtNuZKAvhzi7RLWrVqqUvMnh0Y52PVA6bLSNq7JZ+DZ6VwXO3yNFLcZKQcFVO71gkY0dulMI1rQe6OIng0VpwcLBZISJ3gRaOH330kX68i8A3Iw4ePKjbFGKnzZMDXUBQ26hRI72jiM8Dge2hQ4f0P2hThu42X3zxBQNdJ8HnjQAXHRbcJdAFBrtEt8Cu68svv6zz5GxysLk5do3RHL5u3bpmhYjcCXqbv/POO/qG9s8//zSr6YOd3AYNGuinPxiGQP9B7ijaZhUoUEDy588v2bPbqOojSoZpDB6GaQypQ/4SLjZovF2kSBGzmjGJiYk6yEURQPv27c0qEbmj7777TveLfeONN3T1eu7cuc0rtsXExOjpVqhyR44kbrrpdug1jHSGKlWqmBWitOHOLlEyyLfDuGBMoXMWXMSwa4ydHyJyb61atdI7u7t27ZL77rtP+vTpozsMYDT7rfAY/pdffpHevXvr92EAEP4cA92U8NmgII2BLjmCwS6RFYMHD5aTJ0/qHoQZhT6Zn376qc45Y59jIs+AanbsQmIUe65cuXRaAtYwtRJdX/BrsWLFpEePHrrFWGRkpHz77bdZYxpVJkAKQ5MmTcwRUfow2CWyArm1y5cv11XA2HXBxcgR06dP148zf/75ZylZsqRZJSJPgZ/74cOHy4YNG3Tz/s2bN+vzAX7FMRrzo6espxeipWbZsmW6aI/IEQx2iWxAJSqKyjBDHF0a0PPy2rVr5lX70Kj7xRdflHHjxsnKlSt1H04i8mze3t56RxfN+fErjvv27avTHRAAk3VI99i2bZtuxUbkCAa7RHYg4MXjMwS76JHbuHFjWbBgQYopM4ACkzVr1kjbtm113i+ac6OyGn0giYiswVOk8ePHy1tvvaXHlVNKuBFAgS/SQYgcwWCXKBURERE6wEVDcxStTZkyRQeyKChBz8fatWtL+fLlpWjRojJo0CBdQIE+mSNHjtQXMiIie5CLik4D9ieweS6mMFBGsfWYh2HrsfQ5cuSIPProo7rvbvJZ4H///becP39ekpKSJF++fPpixb6PROQI3CDjxhktD1HIRv/C+RVFe9hswAYDkSO4s0tkA9oEoYF5aGhoikAXMCv85s4u0hYY6BKRo5DH27VrVz2Ugv6DILdw4cIMdClDGOwSWYEhEOiViScJ6KZARHSnvfvuu7prw6+//mpWiCkM5AwMdomsQBP4hIQE3R+XiOhuQAEWBtCg9y5uuOnf/rrWnqwRpQeDXaJkJkyYoFuOoSE8UxOI6G5q0aKF7gKD2gpPd+LECTl27JjUqVPHrBA5JksFu6hsRxEQOQ55YTlz5jRHlBxa3KABPHYT/P39zSoR0d3z2Wefyfvvv68LYD0ZUhgaNWqk+xETZUSW6sZA6XfmzBnd+3Xr1q2yZ88euX79uvj4+OiG5jVq1NA5qQ899JB5t2dDY/cGDRrIokWLdAcGIqLM0qtXL4mNjZVJkyaZFc/TtGlTeeWVV/Q/RBnh0sHuX3/9JevWrdOBGto8oeG2r6+vniuOQC04OFj/nlLCMANM/MJOJQI4fF4IanPnzq1H36LNDT5XPK7HfHacWF9++WXx8vIyX8GznD17VndVwK5u69atzSoRUeaIjo6WChUqyA8//CDVqlUzq54DGzNFihSRw4cPS4ECBcwqkWNcMthdsmSJHrN64MABPbEKPWHRxB+BLn4AEAQjUEMgV6lSJT1u8emnnzZ/2rPFxcXpit5vv/1Wt8wKCQnRPWBtQREETqYYgIDH9tOmTfO4Ge34nsINQcOGDfWjQyIiVzB9+nQ9xGbjxo0etxHx008/yahRo2T9+vVmhchxLhXsYncNE6qw64hJVM2bN7dbIISdXhQRDRs2TO9cIs/Jk+8AL168qIP+0qVLy8SJE+Wee+4xr6QOQe/YsWP1BB8Ev+gf6ymwk4sfA9wgEBG5CpyXUJzVrVs3ad++vVn1DN27d9e9dbFpQ5RRLlOghnxSPKpBc/5t27bpR+qpVcKjYK1NmzYSGRkphQoV0n8ejzw80aVLl/TO5BNPPKFvANIT6AIKAPr37693djFIATvnnuC9997T3zPYQSEiciXYzf38889lwIABcvnyZbPqGdhfl5zJJXZ29+7dK08++aSMHj1aB6+OQsso9ChEnm/JkiXNqmdo2bKlDnDxGWTU4sWL5a233pIdO3a4dUcC7OQi5WPz5s16Qg8RkSvq0qWL5M2bV6f3eYKoqChdnIZaHSJnyPRgF6kI2JFFcIUf6IxCsPv999/rCTTZsnlGG2Hs5CLX9I8//tB5zc7wxhtv6FxW7PS6o02bNkmzZs10p4qgoCCzSkTkes6dO6fPU2vXrtVPP90dNr7QYxepiUTOkOnBLnbWkMKwYMECs5Ix+Os89dRTurDNE2aM4++L4r2vvvpKHn/8cbOacVevXtU9eVEc4G69jZG2gNZiCOTxfUJE5OoQ+OGpGzrouLvHHntMxwY8P5OzZGqwi4bZCKTQXQEtRpwFjz5QYHXkyBHdasudoWIVxXzIc3a2gQMHypUrV2T8+PFmJetD3hsC3ddff13efPNNs0pE5NpQRFy1alV9vn/ppZfMatZ3sw3mzp07JSYmRj/tRQ3FwoUL9bk6f/785p1EjsvUYBdtRdBebOrUqWbFmiS5vHuRfPbBFzJ7xR9yKCavBP1fVxn0/qsSt26nPNX1ebHWf+GFF17QnQkQ1Lizdu3a/S94syfp8m5Z9NkH8sXsFfLHoRjJG/R/0nXQ+/Jq3DrZ+VRXed7Kh4ibBXS5QJcMd4CLBWasly1blo/HiCjLwZM21LVghxd5rairQICIlD1sGCElEBs9AQEB5k+4pmvXrsnMmTN18R36CeO/uUqVKrpGZMuWLbqOAv3ft2/frguve/To4dQnl+R5MjWpFbmmnTt3NkfWJMqJhR2larXusqZ4d5m99ZhcurBfVoxuKDHhnaRX+GGJTjJvTQZfd86cOebIfeHEULduXXNkXeKJhdKxajXpvqa4dJ+9VY5duiD7V4yWhjHh0qlXuBy28SGi7QumrblLhwvkheOigPZqRERZCYJaBLfovIO+4D/++KPuQlS5cmWdz4se63gKh7Q2dNRZsWKF+ZOuZfXq1TrvGH3yEeweO3ZMpzFixxrnaD8/P+nXr58uND9+/LgeHoXr+Ysvvqhzl4kcgp3dzHD16lWVK1cuZfkBNSspJR6bqhrm8VZBA7aqa2btP1dVxMRwtT3BHCbzzz//qHz58qnExESz4n4sJz/9GSYk2PgQIPGYmtowj/IOGqC2pvwQ1dWIiSrc1odoYTlpKsuJyBxlXZaLgHrooYdUdHS0WSEiyhosgaEqWbKkevnll9XChQuVJchVZ8+eNa/e7tq1a2rq1KnKEgCrJk2aqJMnT5pXMt/gwYNViRIl1PLly81KSrhmJ48LcBwWFqbuvfdetXXrVrNKlHaZFuxGRESoatWqmSNrElXU0CCVzSdYTT6ZZNbS5/7771d79+41R+4HJ7HAwEBzZF1i1FAVlM1HBU8+qRz5FDt27Ki++uorc5Q1LVu2TH9Ohw8fNitERFnDwIED1X333adWrVplVpQ6deqU+Z1t8fHx6r333lOFCxdWGzZsMKuZZ8CAAapy5crq3LlzZiX9fvjhB1WkSBEGvJRumZbGgEcx9gcfREvklv2SFFBFggIcG5OIRzz497gry/8/8zvboiO3yP6kAKkSFCCeNWzyXyh66NChg35MhrQMIqKsAoN+li5dqttKohf9TUWLFjW/sw1DmYYMGSKzZs3SNSwYOZxZZsyYofOMkcKA67KjMGQC45PRgxcF7kRp5bqNaFW83IhT4uXrK74ORmlpCQazMiTzI5hH4ZV1SuJvxInysnyGDn6IOKFk1RHMZ86c0blrKEarXbu2WSUicn3h4eF6dDsCxIIFC5rV9EMrTgS8yHk9deqUWb17kJOLNqAY4pPeyZ7W4Jzetm1bty8+J+fKtGAXAZTdOzOvglKuYoCoU3tk/xWzlk5ZOVBLC7RVK168uG7dZp2XFCxXUQLUKdmTzg8RNwrYTfj999/lkUceMatZBwZiPP/889KpUyc9XY6IKKtAgBgaGqoDxIwEujch4H3ttdeka9euZuXuwUj2bt26ycMPP2xWMm7o0KG6U8OGDRvMCpF9mdZ6LDY2Vj/OuHjxouTIkcOs3i5++xCpUm2M+I/ZLuv6Pig+Zv1f12X/6gjxrV9fSmY3S7f4559/5P7779dfH/PF3RXucNGA2+ZJLH67DKlSTcb4j5Ht6/rKg7d/iHJ9/2qJ8K0v9ZN9iKiCRasXtB97++235eWXX5bq1aubVzMPvl337dun+zKinzJ6MuL7BwMw0L6mTJky+n2tWrXSnSS++eYbfUxElFXgJh0bGZiM6Szx8fG6cwM6IKCbw92ADSe0ekSLUWfs6t4Kfw9MSvWErkuUcZm2s5szZ07dIgVBiy0+lcNk9ogasrtfA3l28FzZcvSSxCUkyNXTO2TR2JGysXBNq4Eu/Pbbb7rnoDsHuoCgDtPTbPKpLGGzR0iN3f2kwbODZe6Wo3IpLkESrp6WHYvGysiNhaWmlQ8RJ1r0c2zRooUOJvF73Dxgt8He/7M7BSkJuJvHf1eTJk10HluC5XsB30c4iSMfDH2VkZfbqFEj3S7Nfv9mIiLXc+HCBVm0aJFuw+VMuPnv1avXXe0xjkAUaQfODnShffv2snz5cj0oiChV2NnNLGPGjFGWb1hzZEusOrRslAoJLq+K5MmhvP0CVFCT3mpm1BXzunVNmzZVkydPNkfuC21aHnjggVSrbWMPLVOjQoJV+SJ5VA5vPxUQ1ET1nhmlbH2KaA1XtGhRtWfPHrOi1I4dO9SgQYNU+fLlValSpdTbb7+tu2rcSUlJSerTTz9VlpOleu2119TOnTvNK9ZFRkYqS4CuChYsqCZNmmRWiYiyhgkTJqg2bdqYI9sSo3ep+cM7qOCKgco/Zz5VvHpLNXTxHnVw7iT1/T/mTcngvO7v768sAbVZubNeffVVNW3aNHP0n/iIUFUuuyg8XParHKY23nohiv9TDXooO54469cLdliqrpuXkqtXr55avXq1OSKyLVODXfzAFShQwOl9APft26f7EKLfoCeYPXu27iF7/bqtU0L6vfnmm6pt27bmKCUEneiZWKFCBd0Wp2/fvmrz5s3mVedAH+FGjRqpOnXq6P+n6bF7925VvXp13Sc4NjbWrBIRubZ27dqpKVOmmCPrEo4vUO0f8FNFGgxU8yNPqMtx8Sr2n0Nq06ww9URgHfXJIdv95YODg+32uXUmbIxgk8SWG+t6qtI5fFXZ15erC7f2xoz/R616q7Zq+fVJdcMsWdO7d281duxYc0RkW6Z2Y0DivSWo0onzzpKUlKSnrQwYMEA/4vYEr7zyipQrV05XvDrDsmXL5Pvvv5dPP/3UrKRkCa51PpklqNTvz5Mnj3Ts2FGnEVgCXz3u0fL9Zd6dflevXtXpCiVKlNBFCMj7Sg9LEC6bNm3SHSvQpgYFa0RErg5FwRjTblPScZkR0l6+8esjS5cOkxcrB0reHNnFr0Apqd16lCxb1E7yX7Z97sXXxr/jbsCoeaSe2eYjj/UMkwcWdZHuc0/K/2Z5ZveXB8o+KKXvL5SsVud2GCmMFDei1GR66zGMCETl6RdffGFWMmbUqFH61549e+pfPQV6DyJZH0F+RmDEJILWefPmSf78+c2qfRhViYrbXbt2yU8//ST58uXTBRYIfPv06aODzvQGviEhIbrobPLkyXrEryPQZxL9HVEIyTY1RJQVIEAMDAw0Rykl/TVdxq2Ok8d7vinVrOzn5Kr5urSv5G2OUsLXvltjd7H5ZP/87SU+ZbtK+FeN5PdenWXKgQSznjbe3t52Wm8S/SfTujHc6uDBg3r+NQImBFqO+vjjj2XChAmydu1afcfnaVDYgBYz2NW8efOQ1tZrOCmNGzdOPvjgA72rW6dOHfOK47Dri6AZ/0RHR8tLL72kuzrga9srHPzuu+9k+PDhevfB19fXrDru2rVrugr5o48+0ru8RESuCjfne/futVnUdXHWc1K0zR/SfeMRGfeojQptO9DFAB1t0JoR58Y7qUuXLrJlyxYpWbKkWbld/PpQ6ba3j0zpkk9+H/qkNF3ZTJav6ieVfJPk8OcdZVLVKTLqUdt7u3i6iELlYcOGmRUi61wi2AW0JsGEGAREI0aMED8/P/NK6mJiYvROLnY216xZk8pjE/eGlm7YFUU1b6VKleSXX37RKQa2IMjFbiw+cwSW06ZNk9KlS5tXnQe9gG8GvhiEgQbnCHwfffTR2wJfdFYoVaqUDrjtPspLp/Xr1+vqXdxYObpTTER0p+H8h+sYut+kpOTs9EZSvNMB6bt1v4yqZnsH1xZsJCDIxeN/7CLfSXhqiy46tjYZ/gt2i4pXwiGZ/lKwfFZhtqwfVVvOpyHYbd68ubRu3VpfS4jscZlgF7Az2b17d90sGo/jMQzAVg9eQGCHyTAjR47UAR0CZOxO1qtXz7zj7kMbFAxjQH9BBJJ58+bVQefd2GlGIIfxkmi71q5dO333jl3uhg0b6sARebYYRIHetOhRixZiK1eu1DsIaHPz6quv3pVWbXv27Plf4It+yDcD37p16+pdXbQMW7VqlXm38yCw7tevn97RICJyRQgMcWOO86I1CRt7yX31JknNb0/JolZpSzW71c3zLdpW3mmDBw/WaQbYTLHmtmDXcqwu/Cw9nugjiR+sldAD78jkVIJdXFcxBhk3CET2uFSwexN6533yyScSGRmpH8tjmAF68iKYRYCLXUIEahijiAAGeaEYgDB79mwZOHCgDi5Hjx6tH+ffDQjS0et25syZcvToUf3I/N5779U7iNjF/PPPP3X+KOaToyCvfPny5k86B/Kv8BgH03Z69+6t/7lZnHfixAm9S4DPC58bPj/0W8RjJQTAuDGoUqWKfm9mwOO6m4EvbhCQg4UhFs7uMQkYMDF37lxZsmSJWSEici04l1+5ckXGjh1rVpJxcFDQTSj6xSYIaiLuNKSiIbjG5oq1J2rJg12IjRwtjVv/KU2e95VLz021GexiQwTX/h07dpgVIjsQ7LqqgwcPqunTp6s33nhDNW7cWLdMwa89evRQlsBSHTlyxLzzP2i/NW7cOFW4cGHVqVMndfz4cfOK88XHxyvLiUm3TwsJCdGttxISEsyrt7P8sOtWXehd27JlS2UJUM0rjkPPxOHDh+s2a5bg0ClfMzNZgnHl6+urli1bZlZuilcRoeWU5dStxMtPVQ7beFt/4Pg/B6mHdM9GvF5QdVhqvQWbJfBXAQEB5oiIyPWgVVexYsX09cWWa5GjVT1/bxX49CA1J+KIung9XsXHnFLbF45Rg6bvULaabloCRN2m8m5C68hFixaZo1vdUCemv6Tqhv6qLt122UxQR755SZXKU1713Wi78RjaSnpCL31yDpcOdjPi0qVLKiwsTA8j6N+/vz52pmPHjqkaNWroPrD4fVohGA8NDVWBgYEON8NGQI0+jDghYoDCgQMHzCtZG4LdMmXKmCNrbqh1PUurHL5l1evLL6jb2zKuUm/Vbqm+PmmvK6PSn/vhw4fNERGR66lfv7767rvvzJF16R0UBBi2dLeH7WDzAud19E3/z3W1uE0+5YUNCss/PtVGqN23BrxJF9Xqvs+p/jaC3R9//FGVLl3aY3rpU8a5bbB7E3Z2scOLnd6PP/5YxcXFmVcch+AWP7yjR482K+n3yy+/6P+mn3/+2aykzZIlS1TFihXVE088obZs2WJW3QOCf+ze22YJdt9up94Z0lgVKdFKfXfilsbpiYfUZ+3DlJ2NAK1WrVpq06ZN5oiIyPVgBxbDeqKjo81KxiHozKwAEZNSu3btao7SKP6KumJlHtDZs2dV8eLF9TWUKK3cviwdCezIp0XeKv5Bvixyey1/d/OO9EEVKwq+unXrpoudHGUJVnXHgTZt2ujc5NSgfYvlbl8XoCGXC10WnNmtwBWgkAE5u3Z5+UjZruHyVaPfpVfnKZLOtow6d5p9GYnIlaEzUePGjaVHjx5mJWNQ14HhTei2kxnDlsaPHy8RERG6pibNsueRPMmaMqGuA58NWprhGkqUVh7TgwmDD1CYhCEDmAyGojdHKv7DwsJ0kInE+IxCv9kPP/xQV96iQ4I1aMnWokULneSP96FTxTPPPGNedS/oFIHCjFRlKyzPjp8t3S6+LyEf7ZA4s5wW6JaBfw8RkSvDtQFFxRm91iDQbdCggXTt2jXTAkRMskRB+Q8//KCDbkzITC9c+7Dh06xZM93lgSg9PK7h6GOPPaZH2aK1GdqcPf3002naWQW8b+HChXbH6KYXWoShbUryr4kTFO7qERCjWwLaiGHgRqo7n1kYbkgwhS1NO6+5qsuA2SPknokd5L3fYsyifXFxcbo9Gzp7EBG5MrTTxERLjEvHRgdu1NMLbTBxzUMnIEwrzUxocYle+NjYQcciPNlEe87UYDcXwS2u1dhsQt9eovTy2O762ClFYIWm1E2aNNHpBIcPHzavWodHMQhA0zpGN62GDBmip9ogyEOaBJp+o20aWrXgzh6BeWY8errbcPePUZaYvJYW2Ut3kKmTHpWlXd6R5RdST0vBzUq5cuU84rMkoqwP1xqkrOFpFFpqog85Bu+kBgMjkPKGaxuuL5g05gowSn769Ol6cwfpeGh/9u6778rixYt1205M2kTvdbQTQ791bAbhnH3y5EkduLdt29Z8JaL08dhgF5C/idxb7JqWLVtWpzbgkRF+2JLDXTXuRDt37mxWbEi6LLsXjJCQBkFSLH8u8S9RQ1oNWyJ7/54nkxdfNG+6XdWqVXWQ16tXL/2DHRUVpXN0EVxjdKQnee655/SgkLTxknsafSBft90tfd6cKydS2STA13322WfNERGR60OgizH4yLedPHmyfhKIXuToTY40NzwFPH36tO5p++WXX+phEdgsudnj/ZVXXjFfyXUgCMfwo/nz5+vr8KRJk3TP/Pvuu09fi/F3WLdundSuXVv/HVF3czcGM5H7csmhEpkFoxPxiGTOnDnSt29fPYL45i4g8nux44pm3DYlnpCFnerLq8vvk7e/GCfdnq4ghX2uyvHIn2RS/3dkXbONsqFnqRR3GEuXLtUpChiagTQJBN2eCs3HcYI7cuRIyh3Y+JMS3rqF/NVzmYys5y//S+hIPCqzWtWX16NelJ93fCjWepAjFxgXCewY8KRJRFkVNkNQf4JBQTifYVw+0tsCAgL0tQPnT0xIc/YTSKKsjMGuFbiTROrApk2b9OMf5EvhkQsmpaFowLokOT6tsVToelLe2rxVRlRPFqhd2yJfzvOTLu0r/RekGe+8844eK4w7WSTxezrMOi9evPjtE4Tilkjbws3km8v4dvWRaiO2S8SACv/7LNWlNfJOu1XywoKRVoNdTK67fv263iEgIiIiz8Fg1w6kEoSGhuoEeQRfyO9FJalVSbtkWKVKMqzwl3JkdRe59+bswzTCjiZamqGAytPh80Z+GnbYUVyRVgkxMZKQJ48k61YjK1eulE6dOsnOnTt1XjARERF5Do/O2U1NzZo1ddrCmDFjZM+ePfY7IURHypb9SRJQJUgC0hnoQo4cOWy2H/M0yFMODw/Xj+KQh5ZW2a0EusgLQ/Hh119/zUCXiIjIAzHYTQP0tcU/aF1li4q/IXHKS3x9fcWBWFd3YUDOLv0LbWamTJmiP3dU6jpi7ty5ejf+m2++0f0ZiYiIyPMw2E0jVIjaa4nlVbCcVAxQcmrPfknDWIQU8LXZ//V26MyAgj1UHqMFzaFDh8wr9iHnumXLlrrlDor/kB5CREREnonBbhphahqqX23KXlNCOleU+J8+lal7rfRBvL5fVq87Kram2+Jru9v4X2dAOxpMzkHONNJKmjZtqovMsBYbG6vHPuNXtNhBWx60tKlbt64eC401fqZERESejQVqaYRK/hIlSsi2bdt0L0CrYrfLmKfry7t/15IBHw+Tzk9XlsA8CXJ+9wqZOT9a/q9/B3nYyjwD/C+oWLGiDuIQqJF1CGpRtIY8atwcoKgPqSVIHUFzcgTDwcHBOteXKSFEREQEDHbTAY/TUaSGgjWbrh+WHz8ZKh/O+FG2/n1eEvzLS4M2/WTs0LYSlMe8Jxl0C0D7sbSOLSYiIiKitGGwmw4YJ4zdQ7Qkw4ACZ0hISNCP6jGGmKMQiYiIiJyLObvpgAAXfXdDQkJ06oEzjB49WgoWLMhAl4iIiOgO4M5uOiUlJem2WAh80RrLy8uRRmP/mjVrlg6esVPMEbZEREREzsed3XTKli2b7vuK9lYYI4z+uI6YOHGi9OvXT1atWsVAl4iIiOgOYbDrgNy5c8uyZcv07ytXriy//PKL/n1aIO8X7bGmTZum/1yFChXMK0RERETkbExjyCDs8qJLA0bRvv7663pSV5kyZW5Lbzhz5oxs3rxZj8D99ddfpXfv3npXN3v27OYdRERERHQnMNh1AnyEy5cvlxkzZkhERIRcunRJihQpotuU4ffo0Vu9enV54YUXpE2bNnpnmIiIiIjuPAa7d8CFCxfk/PnzkpiYKPny5dPTv4iIiIjo7mOwS0RERERuiwVqREREROS2GOwSERERkdtisEtEREREbovBLhERERG5LQa7REREROS2GOwSERERkdtisEtEREREbovBLhERERG5LQa7REREROS2GOwSERERkdtisEtEREREbovBLhERERG5LQa7REREROS2GOwSERERkdtisEtEREREbovBLhERERG5LQa7REREROS2GOwSERERkdtisEtEREREbovBLhERERG5LQa7REREROS2GOwSERERkdtisEtEREREbkrk/wHLm3eeK+eTSwAAAABJRU5ErkJggg==;" vertex="1" parent="1">
          <mxGeometry x="52.56" y="49.19" width="714.89" height="450" as="geometry" />
        </mxCell>
        <mxCell id="EiOGQCSZbxETFX581DzM-2" value="3" style="text;html=1;strokeColor=none;fillColor=none;align=center;verticalAlign=middle;whiteSpace=wrap;rounded=0;fontColor=#FF0000;fontStyle=1" vertex="1" parent="1">
          <mxGeometry x="67" y="210" width="25" height="30" as="geometry" />
        </mxCell>
        <mxCell id="EiOGQCSZbxETFX581DzM-3" value="4" style="text;html=1;strokeColor=none;fillColor=none;align=center;verticalAlign=middle;whiteSpace=wrap;rounded=0;fontColor=#FF0000;fontStyle=1" vertex="1" parent="1">
          <mxGeometry x="130" y="240" width="25" height="30" as="geometry" />
        </mxCell>
        <mxCell id="EiOGQCSZbxETFX581DzM-4" value="5" style="text;html=1;strokeColor=none;fillColor=none;align=center;verticalAlign=middle;whiteSpace=wrap;rounded=0;fontColor=#FF0000;fontStyle=1" vertex="1" parent="1">
          <mxGeometry x="190" y="200" width="25" height="30" as="geometry" />
        </mxCell>
        <mxCell id="EiOGQCSZbxETFX581DzM-5" value="2" style="text;html=1;strokeColor=none;fillColor=none;align=center;verticalAlign=middle;whiteSpace=wrap;rounded=0;fontColor=#FF0000;fontStyle=1" vertex="1" parent="1">
          <mxGeometry x="67" y="120" width="25" height="30" as="geometry" />
        </mxCell>
        <mxCell id="EiOGQCSZbxETFX581DzM-6" value="6" style="text;html=1;strokeColor=none;fillColor=none;align=center;verticalAlign=middle;whiteSpace=wrap;rounded=0;fontColor=#FF0000;fontStyle=1" vertex="1" parent="1">
          <mxGeometry x="180" y="120" width="25" height="30" as="geometry" />
        </mxCell>
        <mxCell id="EiOGQCSZbxETFX581DzM-7" value="1" style="text;html=1;strokeColor=none;fillColor=none;align=center;verticalAlign=middle;whiteSpace=wrap;rounded=0;fontColor=#FF0000;fontStyle=1" vertex="1" parent="1">
          <mxGeometry x="145" y="90" width="25" height="30" as="geometry" />
        </mxCell>
        <mxCell id="EiOGQCSZbxETFX581DzM-8" value="7" style="text;html=1;strokeColor=none;fillColor=none;align=center;verticalAlign=middle;whiteSpace=wrap;rounded=0;fontColor=#FF0000;fontStyle=1" vertex="1" parent="1">
          <mxGeometry x="230" y="90" width="25" height="30" as="geometry" />
        </mxCell>
        <mxCell id="EiOGQCSZbxETFX581DzM-9" value="8" style="text;html=1;strokeColor=none;fillColor=none;align=center;verticalAlign=middle;whiteSpace=wrap;rounded=0;fontColor=#FF0000;fontStyle=1" vertex="1" parent="1">
          <mxGeometry x="297.5" y="80" width="25" height="30" as="geometry" />
        </mxCell>
        <mxCell id="EiOGQCSZbxETFX581DzM-10" value="9" style="text;html=1;strokeColor=none;fillColor=none;align=center;verticalAlign=middle;whiteSpace=wrap;rounded=0;fontColor=#FF0000;fontStyle=1" vertex="1" parent="1">
          <mxGeometry x="297.82" y="140" width="25" height="30" as="geometry" />
        </mxCell>
        <mxCell id="EiOGQCSZbxETFX581DzM-12" value="1" style="text;html=1;strokeColor=none;fillColor=none;align=center;verticalAlign=middle;whiteSpace=wrap;rounded=0;fontColor=#FF0000;fontStyle=1" vertex="1" parent="1">
          <mxGeometry x="470" y="90" width="25" height="30" as="geometry" />
        </mxCell>
        <mxCell id="EiOGQCSZbxETFX581DzM-13" value="2" style="text;html=1;strokeColor=none;fillColor=none;align=center;verticalAlign=middle;whiteSpace=wrap;rounded=0;fontColor=#FF0000;fontStyle=1" vertex="1" parent="1">
          <mxGeometry x="420" y="120" width="25" height="30" as="geometry" />
        </mxCell>
        <mxCell id="EiOGQCSZbxETFX581DzM-14" value="3" style="text;html=1;strokeColor=none;fillColor=none;align=center;verticalAlign=middle;whiteSpace=wrap;rounded=0;fontColor=#FF0000;fontStyle=1" vertex="1" parent="1">
          <mxGeometry x="420" y="210" width="25" height="30" as="geometry" />
        </mxCell>
        <mxCell id="EiOGQCSZbxETFX581DzM-15" value="1" style="text;html=1;strokeColor=none;fillColor=none;align=center;verticalAlign=middle;whiteSpace=wrap;rounded=0;fontColor=#FF0000;fontStyle=1" vertex="1" parent="1">
          <mxGeometry x="170" y="270" width="25" height="30" as="geometry" />
        </mxCell>
        <mxCell id="EiOGQCSZbxETFX581DzM-16" value="1" style="text;html=1;strokeColor=none;fillColor=none;align=center;verticalAlign=middle;whiteSpace=wrap;rounded=0;fontColor=#FF0000;fontStyle=1" vertex="1" parent="1">
          <mxGeometry x="545" y="330" width="25" height="30" as="geometry" />
        </mxCell>
        <mxCell id="EiOGQCSZbxETFX581DzM-17" value="2" style="text;html=1;strokeColor=none;fillColor=none;align=center;verticalAlign=middle;whiteSpace=wrap;rounded=0;fontColor=#FF0000;fontStyle=1" vertex="1" parent="1">
          <mxGeometry x="114.99999999999994" y="320" width="25" height="30" as="geometry" />
        </mxCell>
        <mxCell id="EiOGQCSZbxETFX581DzM-18" value="2" style="text;html=1;strokeColor=none;fillColor=none;align=center;verticalAlign=middle;whiteSpace=wrap;rounded=0;fontColor=#FF0000;fontStyle=1" vertex="1" parent="1">
          <mxGeometry x="509.06" y="370" width="25" height="30" as="geometry" />
        </mxCell>
        <mxCell id="EiOGQCSZbxETFX581DzM-19" value="3" style="text;html=1;strokeColor=none;fillColor=none;align=center;verticalAlign=middle;whiteSpace=wrap;rounded=0;fontColor=#FF0000;fontStyle=1" vertex="1" parent="1">
          <mxGeometry x="67" y="350" width="25" height="30" as="geometry" />
        </mxCell>
        <mxCell id="EiOGQCSZbxETFX581DzM-20" value="3" style="text;html=1;strokeColor=none;fillColor=none;align=center;verticalAlign=middle;whiteSpace=wrap;rounded=0;fontColor=#FF0000;fontStyle=1" vertex="1" parent="1">
          <mxGeometry x="530" y="450" width="25" height="30" as="geometry" />
        </mxCell>
        <mxCell id="EiOGQCSZbxETFX581DzM-21" value="4" style="text;html=1;strokeColor=none;fillColor=none;align=center;verticalAlign=middle;whiteSpace=wrap;rounded=0;fontColor=#FF0000;fontStyle=1" vertex="1" parent="1">
          <mxGeometry x="67" y="450" width="25" height="30" as="geometry" />
        </mxCell>
        <mxCell id="EiOGQCSZbxETFX581DzM-23" value="4" style="text;html=1;strokeColor=none;fillColor=none;align=center;verticalAlign=middle;whiteSpace=wrap;rounded=0;fontColor=#FF0000;fontStyle=1" vertex="1" parent="1">
          <mxGeometry x="484.05999999999995" y="240" width="25" height="30" as="geometry" />
        </mxCell>
        <mxCell id="EiOGQCSZbxETFX581DzM-24" value="4" style="text;html=1;strokeColor=none;fillColor=none;align=center;verticalAlign=middle;whiteSpace=wrap;rounded=0;fontColor=#FF0000;fontStyle=1" vertex="1" parent="1">
          <mxGeometry x="620" y="450" width="25" height="30" as="geometry" />
        </mxCell>
        <mxCell id="EiOGQCSZbxETFX581DzM-25" value="5" style="text;html=1;strokeColor=none;fillColor=none;align=center;verticalAlign=middle;whiteSpace=wrap;rounded=0;fontColor=#FF0000;fontStyle=1" vertex="1" parent="1">
          <mxGeometry x="105" y="469.19" width="25" height="30" as="geometry" />
        </mxCell>
        <mxCell id="EiOGQCSZbxETFX581DzM-28" value="6" style="text;html=1;strokeColor=none;fillColor=none;align=center;verticalAlign=middle;whiteSpace=wrap;rounded=0;fontColor=#FF0000;fontStyle=1" vertex="1" parent="1">
          <mxGeometry x="170" y="450" width="25" height="30" as="geometry" />
        </mxCell>
        <mxCell id="EiOGQCSZbxETFX581DzM-29" value="7" style="text;html=1;strokeColor=none;fillColor=none;align=center;verticalAlign=middle;whiteSpace=wrap;rounded=0;fontColor=#FF0000;fontStyle=1" vertex="1" parent="1">
          <mxGeometry x="170" y="350" width="25" height="30" as="geometry" />
        </mxCell>
        <mxCell id="EiOGQCSZbxETFX581DzM-30" value="5" style="text;html=1;strokeColor=none;fillColor=none;align=center;verticalAlign=middle;whiteSpace=wrap;rounded=0;fontColor=#FF0000;fontStyle=1" vertex="1" parent="1">
          <mxGeometry x="540" y="210" width="25" height="30" as="geometry" />
        </mxCell>
        <mxCell id="EiOGQCSZbxETFX581DzM-31" value="5" style="text;html=1;strokeColor=none;fillColor=none;align=center;verticalAlign=middle;whiteSpace=wrap;rounded=0;fontColor=#FF0000;fontStyle=1" vertex="1" parent="1">
          <mxGeometry x="610" y="350" width="25" height="30" as="geometry" />
        </mxCell>
        <mxCell id="EiOGQCSZbxETFX581DzM-33" value="6" style="text;html=1;strokeColor=none;fillColor=none;align=center;verticalAlign=middle;whiteSpace=wrap;rounded=0;fontColor=#FF0000;fontStyle=1" vertex="1" parent="1">
          <mxGeometry x="535" y="120" width="25" height="30" as="geometry" />
        </mxCell>
        <mxCell id="EiOGQCSZbxETFX581DzM-34" value="6" style="text;html=1;strokeColor=none;fillColor=none;align=center;verticalAlign=middle;whiteSpace=wrap;rounded=0;fontColor=#FF0000;fontStyle=1" vertex="1" parent="1">
          <mxGeometry x="647.5" y="330" width="25" height="30" as="geometry" />
        </mxCell>
        <mxCell id="EiOGQCSZbxETFX581DzM-35" value="7" style="text;html=1;strokeColor=none;fillColor=none;align=center;verticalAlign=middle;whiteSpace=wrap;rounded=0;fontColor=#FF0000;fontStyle=1" vertex="1" parent="1">
          <mxGeometry x="730" y="310" width="25" height="30" as="geometry" />
        </mxCell>
        <mxCell id="EiOGQCSZbxETFX581DzM-36" value="8" style="text;html=1;strokeColor=none;fillColor=none;align=center;verticalAlign=middle;whiteSpace=wrap;rounded=0;fontColor=#FF0000;fontStyle=1" vertex="1" parent="1">
          <mxGeometry x="730" y="380" width="25" height="30" as="geometry" />
        </mxCell>
        <mxCell id="EiOGQCSZbxETFX581DzM-37" value="8" style="text;html=1;strokeColor=none;fillColor=none;align=center;verticalAlign=middle;whiteSpace=wrap;rounded=0;fontColor=#FF0000;fontStyle=1" vertex="1" parent="1">
          <mxGeometry x="230" y="469.19" width="25" height="30" as="geometry" />
        </mxCell>
        <mxCell id="EiOGQCSZbxETFX581DzM-38" value="9" style="text;html=1;strokeColor=none;fillColor=none;align=center;verticalAlign=middle;whiteSpace=wrap;rounded=0;fontColor=#FF0000;fontStyle=1" vertex="1" parent="1">
          <mxGeometry x="280" y="400" width="25" height="30" as="geometry" />
        </mxCell>
        <mxCell id="EiOGQCSZbxETFX581DzM-39" value="10" style="text;html=1;strokeColor=none;fillColor=none;align=center;verticalAlign=middle;whiteSpace=wrap;rounded=0;fontColor=#FF0000;fontStyle=1" vertex="1" parent="1">
          <mxGeometry x="215" y="330" width="25" height="30" as="geometry" />
        </mxCell>
        <mxCell id="EiOGQCSZbxETFX581DzM-40" value="11" style="text;html=1;strokeColor=none;fillColor=none;align=center;verticalAlign=middle;whiteSpace=wrap;rounded=0;fontColor=#FF0000;fontStyle=1" vertex="1" parent="1">
          <mxGeometry x="280" y="300" width="25" height="30" as="geometry" />
        </mxCell>
        <mxCell id="EiOGQCSZbxETFX581DzM-41" value="12" style="text;html=1;strokeColor=none;fillColor=none;align=center;verticalAlign=middle;whiteSpace=wrap;rounded=0;fontColor=#FF0000;fontStyle=1" vertex="1" parent="1">
          <mxGeometry x="328.37" y="390" width="25" height="30" as="geometry" />
        </mxCell>
        <mxCell id="EiOGQCSZbxETFX581DzM-42" value="13" style="text;html=1;strokeColor=none;fillColor=none;align=center;verticalAlign=middle;whiteSpace=wrap;rounded=0;fontColor=#FF0000;fontStyle=1" vertex="1" parent="1">
          <mxGeometry x="360" y="300" width="25" height="30" as="geometry" />
        </mxCell>
        <mxCell id="EiOGQCSZbxETFX581DzM-43" value="14" style="text;html=1;strokeColor=none;fillColor=none;align=center;verticalAlign=middle;whiteSpace=wrap;rounded=0;fontColor=#FF0000;fontStyle=1" vertex="1" parent="1">
          <mxGeometry x="445" y="300" width="25" height="30" as="geometry" />
        </mxCell>
        <mxCell id="EiOGQCSZbxETFX581DzM-44" value="15" style="text;html=1;strokeColor=none;fillColor=none;align=center;verticalAlign=middle;whiteSpace=wrap;rounded=0;fontColor=#FF0000;fontStyle=1" vertex="1" parent="1">
          <mxGeometry x="445" y="360" width="25" height="30" as="geometry" />
        </mxCell>
        <mxCell id="EiOGQCSZbxETFX581DzM-46" value="7" style="text;html=1;strokeColor=none;fillColor=none;align=center;verticalAlign=middle;whiteSpace=wrap;rounded=0;fontColor=#FF0000;fontStyle=1" vertex="1" parent="1">
          <mxGeometry x="595" y="130" width="25" height="30" as="geometry" />
        </mxCell>
        <mxCell id="EiOGQCSZbxETFX581DzM-47" value="8" style="text;html=1;strokeColor=none;fillColor=none;align=center;verticalAlign=middle;whiteSpace=wrap;rounded=0;fontColor=#FF0000;fontStyle=1" vertex="1" parent="1">
          <mxGeometry x="610" y="220" width="25" height="30" as="geometry" />
        </mxCell>
        <mxCell id="EiOGQCSZbxETFX581DzM-48" value="10" style="text;html=1;strokeColor=none;fillColor=none;align=center;verticalAlign=middle;whiteSpace=wrap;rounded=0;fontColor=#FF0000;fontStyle=1" vertex="1" parent="1">
          <mxGeometry x="720" y="150" width="30" height="30" as="geometry" />
        </mxCell>
        <mxCell id="EiOGQCSZbxETFX581DzM-49" value="9" style="text;html=1;strokeColor=none;fillColor=none;align=center;verticalAlign=middle;whiteSpace=wrap;rounded=0;fontColor=#FF0000;fontStyle=1" vertex="1" parent="1">
          <mxGeometry x="710" y="210" width="30" height="30" as="geometry" />
        </mxCell>
        <mxCell id="EiOGQCSZbxETFX581DzM-50" value="11" style="text;html=1;strokeColor=none;fillColor=none;align=center;verticalAlign=middle;whiteSpace=wrap;rounded=0;fontColor=#FF0000;fontStyle=1" vertex="1" parent="1">
          <mxGeometry x="645" y="90" width="30" height="30" as="geometry" />
        </mxCell>
        <mxCell id="EiOGQCSZbxETFX581DzM-51" value="12" style="text;html=1;strokeColor=none;fillColor=none;align=center;verticalAlign=middle;whiteSpace=wrap;rounded=0;fontColor=#FF0000;fontStyle=1" vertex="1" parent="1">
          <mxGeometry x="710" y="70" width="30" height="30" as="geometry" />
        </mxCell>
      </root>
    </mxGraphModel>
  </diagram>
</mxfile>
